<?xml version="1.0" encoding="UTF-8" standalone="no"?>
<svg
   version="1.1"
   id="svg1"
   viewBox="0 0 1866.6666 1306.6666"
   sodipodi:docname="bubbles.svg"
   inkscape:version="1.3.2 (091e20ef0f, 2023-11-25)"
   xmlns:inkscape="http://www.inkscape.org/namespaces/inkscape"
   xmlns:sodipodi="http://sodipodi.sourceforge.net/DTD/sodipodi-0.dtd"
   xmlns:xlink="http://www.w3.org/1999/xlink"
   xmlns="http://www.w3.org/2000/svg"
   xmlns:svg="http://www.w3.org/2000/svg">
   <title>Bubbles</title>
  <defs>
    <style>
      path {
        fill: url('#bubbleGradient');
      }
      rect {
        fill: url('#bgGradient');
        stroke: none;
      }
      .highlight path {
        fill: white;
        fill-opacity: 0.05;
      }
    </style>
    <radialGradient
       id="bgGradient"
       inkscape:collect="always">
      <stop
         style="stop-color: #68579E"
         offset="0"/>
      <stop
         style="stop-color: #3B2280"
         offset="1"/>
    </radialGradient>
    <radialGradient
       id="bubbleGradient"
       x="50%" y="50%">
      <stop
        style="stop-color: white; stop-opacity: 0%"
        offset="0%"/>
      <stop
        style="stop-color: white; stop-opacity: 0%"
        offset="70%"/>
      <stop
        style="stop-color: white; stop-opacity: 20%"
        offset="83%"/>
      <stop
        style="stop-color: white; stop-opacity: 30%"
        offset="88%"/>
      <stop
        style="stop-color: white; stop-opacity: 55%"
        offset="93%"/>
        <stop
        style="stop-color: white; stop-opacity: 15%"
        offset="98%"/>
        <stop
        style="stop-color: white; stop-opacity: 0%"
        offset="100%"/>
    </radialGradient>
  </defs>
  <g
     id="layer-MC0"
     inkscape:groupmode="layer"
     inkscape:label="Layer 3">
    <rect width="100%" height="100%"/>
    <g
       class="highlight"
       id="g14">
      <path
         d="m 716.557,329.304 c 0,-20.223 -21.005,0 -46.916,0 -25.911,0 -46.916,-20.223 -46.916,0 0,20.223 21.005,36.617 46.916,36.617 25.911,0 46.916,-16.394 46.916,-36.617"
         transform="matrix(1.3333333,0,0,-1.3333333,0,1306.6667)"
         id="path14" />
    </g>
    <g
       class="highlight"
       id="g26">
      <path
         d="m 1084.062,519.258 c 0,-14.412 -14.97,0 -33.435,0 -18.466,0 -33.436,-14.412 -33.436,0 0,14.412 14.97,26.096 33.436,26.096 18.465,0 33.435,-11.684 33.435,-26.096"
         transform="matrix(1.3333333,0,0,-1.3333333,0,1306.6667)"
         id="path26" />
    </g>
    <g
       class="highlight"
       id="g38">
      <path
         d="m 745.419,708.659 c 11.223,-9.043 -9.392,-11.656 -20.979,-26.034 -11.586,-14.379 -9.757,-35.078 -20.979,-26.035 -11.222,9.043 -10.927,28.03 0.66,42.409 11.586,14.378 30.076,18.703 41.298,9.66"
         transform="matrix(1.3333333,0,0,-1.3333333,0,1306.6667)"
         id="path38" />
    </g>
    <g
       class="highlight"
       id="g50">
      <path
         d="m 975.673,193.449 c 0,-8.108 -8.422,0 -18.811,0 -10.389,0 -18.812,-8.108 -18.812,0 0,8.109 8.423,14.683 18.812,14.683 10.389,0 18.811,-6.574 18.811,-14.683"
         transform="matrix(1.3333333,0,0,-1.3333333,0,1306.6667)"
         id="path50" />
    </g>
    <g
       class="highlight"
       id="g62">
      <path
         d="m 589.351,538.764 c 0,-8.109 -8.422,0 -18.812,0 -10.389,0 -18.811,-8.109 -18.811,0 0,8.108 8.422,14.682 18.811,14.682 10.39,0 18.812,-6.574 18.812,-14.682"
         transform="matrix(1.3333333,0,0,-1.3333333,0,1306.6667)"
         id="path62" />
    </g>
    <g
       class="highlight"
       id="g74">
      <path
         d="m 981.204,727.601 c 0,-8.109 -8.422,0 -18.811,0 -10.389,0 -18.811,-8.109 -18.811,0 0,8.108 8.422,14.682 18.811,14.682 10.389,0 18.811,-6.574 18.811,-14.682"
         transform="matrix(1.3333333,0,0,-1.3333333,0,1306.6667)"
         id="path74" />
    </g>
    <g
       class="highlight"
       id="g86">
      <path
         d="m 934.774,483.467 c 0,-4.803 -4.988,0 -11.141,0 -6.154,0 -11.142,-4.803 -11.142,0 0,4.803 4.988,8.696 11.142,8.696 6.153,0 11.141,-3.893 11.141,-8.696"
         transform="matrix(1.3333333,0,0,-1.3333333,0,1306.6667)"
         id="path86" />
    </g>
    <g
       class="highlight"
       id="g98">
      <path
         d="m 878.058,314.145 c 0,-4.803 -4.988,0 -11.142,0 -6.153,0 -11.142,-4.803 -11.142,0 0,4.803 4.989,8.696 11.142,8.696 6.154,0 11.142,-3.893 11.142,-8.696"
         transform="matrix(1.3333333,0,0,-1.3333333,0,1306.6667)"
         id="path98" />
    </g>
    <g
       class="highlight"
       id="g110">
      <path
         d="m 353.778,619.946 c 0,-4.803 -4.988,0 -11.141,0 -6.154,0 -11.142,-4.803 -11.142,0 0,4.803 4.988,8.696 11.142,8.696 6.153,0 11.141,-3.893 11.141,-8.696"
         transform="matrix(1.3333333,0,0,-1.3333333,0,1306.6667)"
         id="path110" />
    </g>
    <g
       class="highlight"
       id="g122">
      <path
         d="m 404.96,902.266 c 0,-4.803 -4.989,0 -11.142,0 -6.154,0 -11.142,-4.803 -11.142,0 0,4.803 4.988,8.696 11.142,8.696 6.153,0 11.142,-3.893 11.142,-8.696"
         transform="matrix(1.3333333,0,0,-1.3333333,0,1306.6667)"
         id="path122" />
    </g>
    <g
       class="highlight"
       id="g134">
      <path
         d="m 1097.114,605.528 c 0,-4.803 -4.989,0 -11.142,0 -6.154,0 -11.142,-4.803 -11.142,0 0,4.803 4.988,8.696 11.142,8.696 6.153,0 11.142,-3.893 11.142,-8.696"
         transform="matrix(1.3333333,0,0,-1.3333333,0,1306.6667)"
         id="path134" />
    </g>
    <g
       class="highlight"
       id="g146">
      <path
         d="m 866.916,833.862 c 0,-4.802 -4.988,0 -11.142,0 -6.153,0 -11.141,-4.802 -11.141,0 0,4.803 4.988,8.696 11.141,8.696 6.154,0 11.142,-3.893 11.142,-8.696"
         transform="matrix(1.3333333,0,0,-1.3333333,0,1306.6667)"
         id="path146" />
    </g>
    <g
       class="highlight"
       id="g158">
      <path
         d="m 992.346,868.283 c 0,-4.803 -4.988,0 -11.142,0 -6.153,0 -11.142,-4.803 -11.142,0 0,4.803 4.989,8.696 11.142,8.696 6.154,0 11.142,-3.893 11.142,-8.696"
         transform="matrix(1.3333333,0,0,-1.3333333,0,1306.6667)"
         id="path158" />
    </g>
    <g
       class="highlight"
       id="g170">
      <path
         d="m 1070.766,251.491 c 0,-4.802 -4.988,0 -11.142,0 -6.153,0 -11.142,-4.802 -11.142,0 0,4.803 4.989,8.696 11.142,8.696 6.154,0 11.142,-3.893 11.142,-8.696"
         transform="matrix(1.3333333,0,0,-1.3333333,0,1306.6667)"
         id="path170" />
    </g>
    <g
       class="highlight"
       id="g182">
      <path
         d="m 845.836,181.15 c 0,-4.803 -4.988,0 -11.141,0 -6.154,0 -11.142,-4.803 -11.142,0 0,4.802 4.988,8.696 11.142,8.696 6.153,0 11.141,-3.894 11.141,-8.696"
         transform="matrix(1.3333333,0,0,-1.3333333,0,1306.6667)"
         id="path182" />
    </g>
    <g
       class="highlight"
       id="g194">
      <path
         d="m 369.763,131.019 c 0,-4.803 -4.989,0 -11.142,0 -6.154,0 -11.142,-4.803 -11.142,0 0,4.803 4.988,8.696 11.142,8.696 6.153,0 11.142,-3.893 11.142,-8.696"
         transform="matrix(1.3333333,0,0,-1.3333333,0,1306.6667)"
         id="path194" />
    </g>
    <g
       class="highlight"
       id="g206">
      <path
         d="m 640.007,574.757 c 0,-4.803 -4.989,0 -11.142,0 -6.154,0 -11.142,-4.803 -11.142,0 0,4.802 4.988,8.696 11.142,8.696 6.153,0 11.142,-3.894 11.142,-8.696"
         transform="matrix(1.3333333,0,0,-1.3333333,0,1306.6667)"
         id="path206" />
    </g>
    <g
       class="highlight"
       id="g218">
      <path
         d="m 581.681,68.28 c 0,-4.802 -4.988,0 -11.142,0 -6.153,0 -11.142,-4.802 -11.142,0 0,4.803 4.989,8.696 11.142,8.696 6.154,0 11.142,-3.893 11.142,-8.696"
         transform="matrix(1.3333333,0,0,-1.3333333,0,1306.6667)"
         id="path218" />
    </g>
    <g
       class="highlight"
       id="g230">
      <path
         d="m 605.654,388.663 c 0,-4.802 -4.988,0 -11.142,0 -6.153,0 -11.142,-4.802 -11.142,0 0,4.803 4.989,8.697 11.142,8.697 6.154,0 11.142,-3.894 11.142,-8.697"
         transform="matrix(1.3333333,0,0,-1.3333333,0,1306.6667)"
         id="path230" />
    </g>
    <g
       class="highlight"
       id="g242">
      <path
         d="m 603.582,195.567 c 0,-4.802 -4.989,0 -11.142,0 -6.154,0 -11.142,-4.802 -11.142,0 0,4.803 4.988,8.697 11.142,8.697 6.153,0 11.142,-3.894 11.142,-8.697"
         transform="matrix(1.3333333,0,0,-1.3333333,0,1306.6667)"
         id="path242" />
    </g>
    <g
       class="highlight"
       id="g254">
      <path
         d="m 468.304,699.32 c 0,-4.803 -4.988,0 -11.142,0 -6.153,0 -11.142,-4.803 -11.142,0 0,4.802 4.989,8.696 11.142,8.696 6.154,0 11.142,-3.894 11.142,-8.696"
         transform="matrix(1.3333333,0,0,-1.3333333,0,1306.6667)"
         id="path254" />
    </g>
    <g
       class="highlight"
       id="g266">
      <path
         d="m 802.415,576.409 c 0,-12.922 -21.005,0 -46.916,0 -25.911,0 -46.916,-12.922 -46.916,0 0,12.922 21.005,23.397 46.916,23.397 25.911,0 46.916,-10.475 46.916,-23.397"
         transform="matrix(1.3333333,0,0,-1.3333333,0,1306.6667)"
         id="path266" />
    </g>
    <g
       class="highlight"
       id="g269">
      <path
         d="m 817.959,467.032 c -12.922,0 0,21.005 0,46.916 0,25.911 -12.922,46.917 0,46.917 12.922,0 23.397,-21.006 23.397,-46.917 0,-25.911 -10.475,-46.916 -23.397,-46.916"
         transform="matrix(1.3333333,0,0,-1.3333333,0,1306.6667)"
         id="path269" />
    </g>
    <g
       class="highlight"
       id="g281">
      <path
         d="m 968.825,105.613 c 4.982,9.502 15.446,-8.099 34.499,-18.09 19.054,-9.99 39.482,-8.587 34.5,-18.089 -4.982,-9.502 -24.467,-9.106 -43.521,0.884 -19.053,9.991 -30.46,25.792 -25.478,35.295"
         transform="matrix(1.3333333,0,0,-1.3333333,0,1306.6667)"
         id="path281" />
    </g>
    <g
       class="highlight"
       id="g284">
      <path
         d="m 999.566,192.036 c 9.502,-4.982 -8.099,-15.446 -18.089,-34.5 -9.99,-19.053 -8.587,-39.482 -18.089,-34.499 -9.502,4.982 -9.107,24.467 0.884,43.52 9.99,19.054 25.792,30.461 35.294,25.479"
         transform="matrix(1.3333333,0,0,-1.3333333,0,1306.6667)"
         id="path284" />
    </g>
    <g
       class="highlight"
       id="g296">
      <path
         d="m 656.229,845.329 c -8.371,-9.844 -16.001,13.608 -35.74,30.393 -19.739,16.786 -44.111,20.55 -35.74,30.394 8.371,9.844 31.158,4.216 50.897,-12.57 19.739,-16.785 28.955,-38.373 20.583,-48.217"
         transform="matrix(1.3333333,0,0,-1.3333333,0,1306.6667)"
         id="path296" />
    </g>
    <g
       class="highlight"
       id="g299">
      <path
         d="m 597.215,751.937 c -9.844,8.371 13.607,16.001 30.393,35.74 16.786,19.739 20.549,44.112 30.393,35.74 9.844,-8.371 4.216,-31.158 -12.569,-50.897 -16.786,-19.739 -38.374,-28.954 -48.217,-20.583"
         transform="matrix(1.3333333,0,0,-1.3333333,0,1306.6667)"
         id="path299" />
    </g>
    <g
       class="highlight"
       id="g311">
      <path
         d="m 780.755,203.016 c -11.725,-5.432 -8.829,19.059 -19.72,42.57 -10.891,23.511 -31.445,37.139 -19.72,42.57 11.724,5.432 30.059,-9.224 40.95,-32.735 10.891,-23.511 10.215,-46.974 -1.51,-52.405"
         transform="matrix(1.3333333,0,0,-1.3333333,0,1306.6667)"
         id="path311" />
    </g>
    <g
       class="highlight"
       id="g314">
      <path
         d="m 688.044,142.937 c -5.432,11.725 19.059,8.829 42.57,19.72 23.511,10.891 37.139,31.445 42.57,19.72 5.432,-11.725 -9.224,-30.059 -32.735,-40.95 -23.511,-10.891 -46.974,-10.215 -52.405,1.51"
         transform="matrix(1.3333333,0,0,-1.3333333,0,1306.6667)"
         id="path314" />
    </g>
    <g
       class="highlight"
       id="g326">
      <path
         d="m 963.079,665.415 c -14.391,-6.666 -10.837,23.393 -24.204,52.25 -13.368,28.856 -38.595,45.582 -24.204,52.249 14.391,6.666 36.893,-11.322 50.261,-40.179 13.367,-28.856 12.538,-57.653 -1.853,-64.32"
         transform="matrix(1.3333333,0,0,-1.3333333,0,1306.6667)"
         id="path326" />
    </g>
    <g
       class="highlight"
       id="g329">
      <path
         d="m 849.288,591.677 c -6.666,14.39 23.393,10.836 52.25,24.204 28.856,13.367 45.582,38.594 52.249,24.204 6.666,-14.391 -11.322,-36.894 -40.179,-50.261 -28.856,-13.368 -57.653,-12.538 -64.32,1.853"
         transform="matrix(1.3333333,0,0,-1.3333333,0,1306.6667)"
         id="path329" />
    </g>
    <g
       class="highlight"
       id="g341">
      <path
         d="m 395.95,224.685 c -10.413,11.963 19.446,16.927 43.433,37.807 23.987,20.88 33.02,49.77 43.433,37.807 10.413,-11.963 -0.591,-38.587 -24.579,-59.467 -23.987,-20.88 -51.874,-28.11 -62.287,-16.147"
         transform="matrix(1.3333333,0,0,-1.3333333,0,1306.6667)"
         id="path341" />
    </g>
    <g
       class="highlight"
       id="g344">
      <path
         d="m 293.419,313.415 c 11.962,10.413 16.927,-19.445 37.807,-43.433 20.88,-23.987 49.769,-33.02 37.807,-43.433 -11.963,-10.413 -38.587,0.591 -59.467,24.579 -20.881,23.987 -28.11,51.874 -16.147,62.287"
         transform="matrix(1.3333333,0,0,-1.3333333,0,1306.6667)"
         id="path344" />
    </g>
    <g
       class="highlight"
       id="g356">
      <path
         d="m 467.66,283.3 c 4.383,1.465 2.382,-7.126 5.319,-15.916 2.938,-8.79 9.703,-14.45 5.32,-15.915 -4.384,-1.465 -10.319,4.473 -13.257,13.262 -2.937,8.79 -1.766,17.103 2.618,18.569"
         transform="matrix(1.3333333,0,0,-1.3333333,0,1306.6667)"
         id="path356" />
    </g>
    <g
       class="highlight"
       id="g359">
      <path
         d="m 503.001,300.974 c 1.465,-4.383 -7.125,-2.381 -15.915,-5.319 -8.79,-2.938 -14.45,-9.703 -15.915,-5.32 -1.465,4.384 4.472,10.319 13.262,13.257 8.79,2.938 17.103,1.766 18.568,-2.618"
         transform="matrix(1.3333333,0,0,-1.3333333,0,1306.6667)"
         id="path359" />
    </g>
    <g
       class="highlight"
       id="g371">
      <path
         d="m 795.593,353.046 c 1.539,4.359 7.084,-2.501 15.824,-5.586 8.739,-3.086 17.362,-1.229 15.823,-5.587 -1.539,-4.358 -9.87,-5.39 -18.61,-2.304 -8.739,3.085 -14.576,9.119 -13.037,13.477"
         transform="matrix(1.3333333,0,0,-1.3333333,0,1306.6667)"
         id="path371" />
    </g>
    <g
       class="highlight"
       id="g374">
      <path
         d="m 803.375,391.787 c 4.358,-1.539 -2.502,-7.084 -5.587,-15.823 -3.086,-8.739 -1.229,-17.363 -5.587,-15.824 -4.358,1.539 -5.39,9.871 -2.304,18.61 3.085,8.739 9.119,14.576 13.478,13.037"
         transform="matrix(1.3333333,0,0,-1.3333333,0,1306.6667)"
         id="path374" />
    </g>
    <g
       class="highlight"
       id="g386">
      <path
         d="m 582.435,671.687 c 4.384,1.465 2.382,-7.126 5.32,-15.915 2.938,-8.79 9.703,-14.451 5.319,-15.916 -4.383,-1.465 -10.318,4.473 -13.256,13.263 -2.938,8.79 -1.766,17.103 2.617,18.568"
         transform="matrix(1.3333333,0,0,-1.3333333,0,1306.6667)"
         id="path386" />
    </g>
    <g
       class="highlight"
       id="g389">
      <path
         d="m 617.777,689.361 c 1.465,-4.383 -7.126,-2.381 -15.916,-5.319 -8.789,-2.938 -14.45,-9.703 -15.915,-5.319 -1.465,4.383 4.473,10.318 13.263,13.256 8.789,2.938 17.103,1.766 18.568,-2.618"
         transform="matrix(1.3333333,0,0,-1.3333333,0,1306.6667)"
         id="path389" />
    </g>
    <g
       class="highlight"
       id="g401">
      <path
         d="m 1024.119,436.911 c 4.383,1.465 2.381,-7.126 5.319,-15.916 2.938,-8.789 9.703,-14.45 5.32,-15.915 -4.384,-1.465 -10.319,4.473 -13.257,13.262 -2.938,8.79 -1.766,17.104 2.618,18.569"
         transform="matrix(1.3333333,0,0,-1.3333333,0,1306.6667)"
         id="path401" />
    </g>
    <g
       class="highlight"
       id="g404">
      <path
         d="m 1059.46,454.585 c 1.465,-4.383 -7.126,-2.381 -15.915,-5.319 -8.79,-2.938 -14.451,-9.703 -15.916,-5.32 -1.465,4.384 4.473,10.319 13.263,13.257 8.79,2.938 17.103,1.766 18.568,-2.618"
         transform="matrix(1.3333333,0,0,-1.3333333,0,1306.6667)"
         id="path404" />
    </g>
    <g
       class="highlight"
       id="g416">
      <path
         d="m 911.556,324.367 c 4.383,1.466 2.381,-7.125 5.319,-15.915 2.938,-8.79 9.703,-14.45 5.32,-15.915 -4.384,-1.465 -10.319,4.472 -13.257,13.262 -2.938,8.79 -1.766,17.103 2.618,18.568"
         transform="matrix(1.3333333,0,0,-1.3333333,0,1306.6667)"
         id="path416" />
    </g>
    <g
       class="highlight"
       id="g419">
      <path
         d="m 946.897,342.042 c 1.465,-4.383 -7.125,-2.382 -15.915,-5.319 -8.79,-2.938 -14.45,-9.703 -15.915,-5.32 -1.466,4.384 4.472,10.319 13.262,13.257 8.79,2.937 17.103,1.765 18.568,-2.618"
         transform="matrix(1.3333333,0,0,-1.3333333,0,1306.6667)"
         id="path419" />
    </g>
    <g
       class="highlight"
       id="g431">
      <path
         d="m 445.086,111.543 c 4.383,1.465 2.381,-7.126 5.319,-15.916 2.938,-8.79 9.703,-14.45 5.319,-15.915 -4.383,-1.465 -10.318,4.473 -13.256,13.262 -2.938,8.79 -1.766,17.103 2.618,18.569"
         transform="matrix(1.3333333,0,0,-1.3333333,0,1306.6667)"
         id="path431" />
    </g>
    <g
       class="highlight"
       id="g434">
      <path
         d="m 480.427,129.217 c 1.465,-4.383 -7.126,-2.381 -15.915,-5.319 -8.79,-2.938 -14.451,-9.703 -15.916,-5.32 -1.465,4.384 4.473,10.319 13.263,13.257 8.789,2.938 17.103,1.766 18.568,-2.618"
         transform="matrix(1.3333333,0,0,-1.3333333,0,1306.6667)"
         id="path434" />
    </g>
    <g
       class="highlight"
       id="g446">
      <path
         d="m 383.62,792.711 c 4.384,1.465 2.382,-7.125 5.32,-15.915 2.938,-8.79 9.703,-14.45 5.319,-15.916 -4.383,-1.465 -10.318,4.473 -13.256,13.263 -2.938,8.79 -1.766,17.103 2.617,18.568"
         transform="matrix(1.3333333,0,0,-1.3333333,0,1306.6667)"
         id="path446" />
    </g>
    <g
       class="highlight"
       id="g449">
      <path
         d="m 418.962,810.386 c 1.465,-4.384 -7.126,-2.382 -15.916,-5.32 -8.79,-2.938 -14.45,-9.703 -15.915,-5.319 -1.465,4.383 4.473,10.318 13.262,13.256 8.79,2.938 17.103,1.766 18.569,-2.617"
         transform="matrix(1.3333333,0,0,-1.3333333,0,1306.6667)"
         id="path449" />
    </g>
    <g
       class="highlight"
       id="g461">
      <path
         d="m 350.913,484.373 c 8.618,2.881 4.683,-14.009 10.459,-31.291 5.776,-17.281 19.077,-28.41 10.458,-31.291 -8.618,-2.88 -20.287,8.794 -26.063,26.076 -5.776,17.281 -3.472,33.626 5.146,36.506"
         transform="matrix(1.3333333,0,0,-1.3333333,0,1306.6667)"
         id="path461" />
    </g>
    <g
       class="highlight"
       id="g464">
      <path
         d="m 420.397,519.123 c 2.881,-8.618 -14.009,-4.682 -31.291,-10.458 -17.281,-5.776 -28.41,-19.077 -31.291,-10.459 -2.88,8.618 8.794,20.287 26.076,26.063 17.281,5.777 33.626,3.473 36.506,-5.146"
         transform="matrix(1.3333333,0,0,-1.3333333,0,1306.6667)"
         id="path464" />
    </g>
    <g
       class="highlight"
       id="g476">
      <path
         d="m 490.081,682.502 c 2.029,8.857 14.398,-3.299 32.16,-7.368 17.761,-4.069 34.188,1.49 32.159,-7.367 -2.029,-8.858 -18.072,-12.74 -35.834,-8.671 -17.761,4.069 -30.514,14.548 -28.485,23.406"
         transform="matrix(1.3333333,0,0,-1.3333333,0,1306.6667)"
         id="path476" />
    </g>
    <g
       class="highlight"
       id="g479">
      <path
         d="m 496.602,759.917 c 8.858,-2.029 -3.299,-14.399 -7.367,-32.16 -4.069,-17.761 1.49,-34.188 -7.368,-32.159 -8.857,2.029 -12.739,18.072 -8.67,35.834 4.069,17.761 14.547,30.514 23.405,28.485"
         transform="matrix(1.3333333,0,0,-1.3333333,0,1306.6667)"
         id="path479" />
    </g>
    <g
       class="highlight"
       id="g491">
      <path
         d="m 342.477,750.254 c -3.845,8.233 13.384,6.25 29.893,13.96 16.51,7.71 26.049,22.193 29.894,13.96 3.845,-8.234 -6.422,-21.158 -22.932,-28.868 -16.51,-7.71 -33.01,-7.286 -36.855,0.948"
         transform="matrix(1.3333333,0,0,-1.3333333,0,1306.6667)"
         id="path491" />
    </g>
    <g
       class="highlight"
       id="g494">
      <path
         d="m 300.027,815.32 c 8.234,3.845 6.25,-13.383 13.96,-29.893 7.71,-16.51 22.193,-26.049 13.96,-29.894 -8.234,-3.845 -21.158,6.422 -28.868,22.932 -7.71,16.51 -7.285,33.011 0.948,36.855"
         transform="matrix(1.3333333,0,0,-1.3333333,0,1306.6667)"
         id="path494" />
    </g>
    <g
       class="highlight"
       id="g506">
      <path
         d="m 1231.188,619.946 c 0,-4.803 -4.989,0 -11.142,0 -6.154,0 -11.142,-4.803 -11.142,0 0,4.803 4.988,8.696 11.142,8.696 6.153,0 11.142,-3.893 11.142,-8.696"
         transform="matrix(1.3333333,0,0,-1.3333333,0,1306.6667)"
         id="path506" />
    </g>
    <g
       class="highlight"
       id="g518">
      <path
         d="m 1282.369,902.266 c 0,-4.803 -4.989,0 -11.142,0 -6.154,0 -11.142,-4.803 -11.142,0 0,4.803 4.988,8.696 11.142,8.696 6.153,0 11.142,-3.893 11.142,-8.696"
         transform="matrix(1.3333333,0,0,-1.3333333,0,1306.6667)"
         id="path518" />
    </g>
    <g
       class="highlight"
       id="g530">
      <path
         d="m 1247.172,131.019 c 0,-4.803 -4.989,0 -11.142,0 -6.154,0 -11.142,-4.803 -11.142,0 0,4.803 4.988,8.696 11.142,8.696 6.153,0 11.142,-3.893 11.142,-8.696"
         transform="matrix(1.3333333,0,0,-1.3333333,0,1306.6667)"
         id="path530" />
    </g>
    <g
       class="highlight"
       id="g542">
      <path
         d="m 1273.359,224.685 c -10.413,11.963 19.446,16.927 43.433,37.807 23.988,20.88 33.02,49.77 43.433,37.807 10.413,-11.963 -0.591,-38.587 -24.578,-59.467 -23.988,-20.88 -51.875,-28.11 -62.288,-16.147"
         transform="matrix(1.3333333,0,0,-1.3333333,0,1306.6667)"
         id="path542" />
    </g>
    <g
       class="highlight"
       id="g545">
      <path
         d="m 1170.828,313.415 c 11.963,10.413 16.927,-19.445 37.807,-43.433 20.88,-23.987 49.77,-33.02 37.807,-43.433 -11.962,-10.413 -38.587,0.591 -59.467,24.579 -20.88,23.987 -28.11,51.874 -16.147,62.287"
         transform="matrix(1.3333333,0,0,-1.3333333,0,1306.6667)"
         id="path545" />
    </g>
    <g
       class="highlight"
       id="g557">
      <path
         d="m 1261.03,792.711 c 4.383,1.465 2.381,-7.125 5.319,-15.915 2.938,-8.79 9.703,-14.45 5.319,-15.916 -4.383,-1.465 -10.318,4.473 -13.256,13.263 -2.938,8.79 -1.766,17.103 2.618,18.568"
         transform="matrix(1.3333333,0,0,-1.3333333,0,1306.6667)"
         id="path557" />
    </g>
    <g
       class="highlight"
       id="g560">
      <path
         d="m 1296.371,810.386 c 1.465,-4.384 -7.126,-2.382 -15.915,-5.32 -8.79,-2.938 -14.451,-9.703 -15.916,-5.319 -1.465,4.383 4.473,10.318 13.263,13.256 8.79,2.938 17.103,1.766 18.568,-2.617"
         transform="matrix(1.3333333,0,0,-1.3333333,0,1306.6667)"
         id="path560" />
    </g>
    <g
       class="highlight"
       id="g572">
      <path
         d="m 1228.322,484.373 c 8.619,2.881 4.683,-14.009 10.459,-31.291 5.776,-17.281 19.077,-28.41 10.459,-31.291 -8.619,-2.88 -20.288,8.794 -26.064,26.076 -5.776,17.281 -3.472,33.626 5.146,36.506"
         transform="matrix(1.3333333,0,0,-1.3333333,0,1306.6667)"
         id="path572" />
    </g>
    <g
       class="highlight"
       id="g575">
      <path
         d="m 1297.807,519.123 c 2.88,-8.618 -14.01,-4.682 -31.291,-10.458 -17.282,-5.776 -28.411,-19.077 -31.291,-10.459 -2.881,8.618 8.793,20.287 26.075,26.063 17.281,5.777 33.626,3.473 36.507,-5.146"
         transform="matrix(1.3333333,0,0,-1.3333333,0,1306.6667)"
         id="path575" />
    </g>
    <g
       class="highlight"
       id="g587">
      <path
         d="m 1219.886,750.254 c -3.845,8.233 13.384,6.25 29.894,13.96 16.509,7.71 26.048,22.193 29.893,13.96 3.845,-8.234 -6.422,-21.158 -22.932,-28.868 -16.509,-7.71 -33.01,-7.286 -36.855,0.948"
         transform="matrix(1.3333333,0,0,-1.3333333,0,1306.6667)"
         id="path587" />
    </g>
    <g
       class="highlight"
       id="g590">
      <path
         d="m 1177.437,815.32 c 8.233,3.845 6.25,-13.383 13.959,-29.893 7.71,-16.51 22.194,-26.049 13.96,-29.894 -8.233,-3.845 -21.158,6.422 -28.868,22.932 -7.709,16.51 -7.285,33.011 0.949,36.855"
         transform="matrix(1.3333333,0,0,-1.3333333,0,1306.6667)"
         id="path590" />
    </g>
    <g
       class="highlight"
       id="g602">
      <path
         d="m 1052.425,771.093 c -0.148,4.62 7.509,0.24 16.772,0.536 9.263,0.296 16.625,5.156 16.772,0.536 0.148,-4.619 -7.241,-8.604 -16.505,-8.9 -9.263,-0.296 -16.891,3.209 -17.039,7.828"
         transform="matrix(1.3333333,0,0,-1.3333333,0,1306.6667)"
         id="path602" />
    </g>
    <g
       class="highlight"
       id="g605">
      <path
         d="m 1045.618,810.017 c 4.62,0.148 0.24,-7.509 0.536,-16.772 0.296,-9.263 5.156,-16.625 0.536,-16.772 -4.619,-0.148 -8.604,7.241 -8.9,16.504 -0.296,9.263 3.209,16.892 7.828,17.04"
         transform="matrix(1.3333333,0,0,-1.3333333,0,1306.6667)"
         id="path605" />
    </g>
    <g
       class="highlight"
       id="g617">
      <path
         d="m 175.136,559.541 c 0,-14.412 -14.97,0 -33.435,0 -18.466,0 -33.436,-14.412 -33.436,0 0,14.413 14.97,26.096 33.436,26.096 18.465,0 33.435,-11.683 33.435,-26.096"
         transform="matrix(1.3333333,0,0,-1.3333333,0,1306.6667)"
         id="path617" />
    </g>
    <g
       class="highlight"
       id="g629">
      <path
         d="m 188.187,645.811 c 0,-4.802 -4.988,0 -11.141,0 -6.154,0 -11.142,-4.802 -11.142,0 0,4.803 4.988,8.697 11.142,8.697 6.153,0 11.141,-3.894 11.141,-8.697"
         transform="matrix(1.3333333,0,0,-1.3333333,0,1306.6667)"
         id="path629" />
    </g>
    <g
       class="highlight"
       id="g641">
      <path
         d="m 161.84,291.775 c 0,-4.803 -4.988,0 -11.142,0 -6.153,0 -11.142,-4.803 -11.142,0 0,4.802 4.989,8.696 11.142,8.696 6.154,0 11.142,-3.894 11.142,-8.696"
         transform="matrix(1.3333333,0,0,-1.3333333,0,1306.6667)"
         id="path641" />
    </g>
    <g
       class="highlight"
       id="g653">
      <path
         d="m 59.899,145.896 c 4.982,9.502 15.446,-8.099 34.499,-18.089 19.054,-9.991 39.482,-8.588 34.5,-18.09 -4.982,-9.502 -24.467,-9.106 -43.521,0.884 -19.053,9.991 -30.46,25.793 -25.478,35.295"
         transform="matrix(1.3333333,0,0,-1.3333333,0,1306.6667)"
         id="path653" />
    </g>
    <g
       class="highlight"
       id="g656">
      <path
         d="m 90.64,232.319 c 9.502,-4.982 -8.099,-15.446 -18.089,-34.499 -9.99,-19.054 -8.587,-39.482 -18.089,-34.5 -9.502,4.982 -9.107,24.467 0.884,43.521 9.99,19.053 25.792,30.46 35.294,25.478"
         transform="matrix(1.3333333,0,0,-1.3333333,0,1306.6667)"
         id="path656" />
    </g>
    <g
       class="highlight"
       id="g668">
      <path
         d="m 115.193,477.194 c 4.383,1.465 2.381,-7.126 5.319,-15.915 2.938,-8.79 9.703,-14.451 5.32,-15.916 -4.384,-1.465 -10.319,4.473 -13.257,13.263 -2.938,8.79 -1.766,17.103 2.618,18.568"
         transform="matrix(1.3333333,0,0,-1.3333333,0,1306.6667)"
         id="path668" />
    </g>
    <g
       class="highlight"
       id="g671">
      <path
         d="m 150.534,494.869 c 1.465,-4.384 -7.126,-2.382 -15.915,-5.32 -8.79,-2.938 -14.451,-9.703 -15.916,-5.319 -1.465,4.383 4.473,10.318 13.263,13.256 8.79,2.938 17.103,1.766 18.568,-2.617"
         transform="matrix(1.3333333,0,0,-1.3333333,0,1306.6667)"
         id="path671" />
    </g>
    <g
       class="highlight"
       id="g683">
      <path
         d="m 143.499,811.376 c -0.148,4.62 7.509,0.24 16.772,0.536 9.263,0.296 16.625,5.156 16.772,0.536 0.148,-4.619 -7.241,-8.604 -16.505,-8.9 -9.263,-0.296 -16.891,3.209 -17.039,7.828"
         transform="matrix(1.3333333,0,0,-1.3333333,0,1306.6667)"
         id="path683" />
    </g>
    <g
       class="highlight"
       id="g686">
      <path
         d="m 136.692,850.3 c 4.62,0.148 0.24,-7.509 0.536,-16.772 0.296,-9.263 5.156,-16.624 0.536,-16.772 -4.619,-0.148 -8.604,7.242 -8.9,16.505 -0.296,9.263 3.209,16.892 7.828,17.039"
         transform="matrix(1.3333333,0,0,-1.3333333,0,1306.6667)"
         id="path686" />
    </g>
    <g
       opacity="0.770004"
       id="g11">
      <path
         d="m 730.351,305.21 c 0,-33.529 -27.181,-60.71 -60.71,-60.71 -33.53,0 -60.711,27.181 -60.711,60.71 0,33.53 27.181,60.711 60.711,60.711 33.529,0 60.71,-27.181 60.71,-60.711"
         transform="matrix(1.3333333,0,0,-1.3333333,0,1306.6667)"
         id="path11" />
    </g>
    <g
       opacity="0.770004"
       id="g23">
      <path
         d="m 1093.893,502.088 c 0,-23.896 -19.371,-43.267 -43.266,-43.267 -23.896,0 -43.267,19.371 -43.267,43.267 0,23.895 19.371,43.266 43.267,43.266 23.895,0 43.266,-19.371 43.266,-43.266"
         transform="matrix(1.3333333,0,0,-1.3333333,0,1306.6667)"
         id="path23" />
    </g>
    <g
       opacity="0.770004"
       id="g35">
      <path
         d="m 764.958,705.54 c 18.606,-14.993 21.534,-42.231 6.541,-60.837 -14.993,-18.606 -42.231,-21.535 -60.837,-6.541 -18.606,14.993 -21.535,42.231 -6.541,60.837 14.993,18.606 42.231,21.535 60.837,6.541"
         transform="matrix(1.3333333,0,0,-1.3333333,0,1306.6667)"
         id="path35" />
    </g>
    <g
       opacity="0.770004"
       id="g47">
      <path
         d="m 981.204,183.789 c 0,-13.444 -10.898,-24.342 -24.342,-24.342 -13.444,0 -24.343,10.898 -24.343,24.342 0,13.444 10.899,24.343 24.343,24.343 13.444,0 24.342,-10.899 24.342,-24.343"
         transform="matrix(1.3333333,0,0,-1.3333333,0,1306.6667)"
         id="path47" />
    </g>
    <g
       opacity="0.770004"
       id="g59">
      <path
         d="m 594.882,529.103 c 0,-13.444 -10.899,-24.342 -24.343,-24.342 -13.444,0 -24.342,10.898 -24.342,24.342 0,13.444 10.898,24.343 24.342,24.343 13.444,0 24.343,-10.899 24.343,-24.343"
         transform="matrix(1.3333333,0,0,-1.3333333,0,1306.6667)"
         id="path59" />
    </g>
    <g
       opacity="0.770004"
       id="g71">
      <path
         d="m 986.735,717.94 c 0,-13.444 -10.898,-24.342 -24.342,-24.342 -13.444,0 -24.343,10.898 -24.343,24.342 0,13.444 10.899,24.343 24.343,24.343 13.444,0 24.342,-10.899 24.342,-24.343"
         transform="matrix(1.3333333,0,0,-1.3333333,0,1306.6667)"
         id="path71" />
    </g>
    <g
       opacity="0.770004"
       id="g83">
      <path
         d="m 938.05,477.745 c 0,-7.963 -6.455,-14.418 -14.417,-14.418 -7.963,0 -14.418,6.455 -14.418,14.418 0,7.963 6.455,14.418 14.418,14.418 7.962,0 14.417,-6.455 14.417,-14.418"
         transform="matrix(1.3333333,0,0,-1.3333333,0,1306.6667)"
         id="path83" />
    </g>
    <g
       opacity="0.770004"
       id="g95">
      <path
         d="m 881.334,308.423 c 0,-7.963 -6.455,-14.418 -14.418,-14.418 -7.962,0 -14.418,6.455 -14.418,14.418 0,7.963 6.456,14.418 14.418,14.418 7.963,0 14.418,-6.455 14.418,-14.418"
         transform="matrix(1.3333333,0,0,-1.3333333,0,1306.6667)"
         id="path95" />
    </g>
    <g
       opacity="0.770004"
       id="g107">
      <path
         d="m 357.055,614.224 c 0,-7.963 -6.456,-14.418 -14.418,-14.418 -7.963,0 -14.418,6.455 -14.418,14.418 0,7.963 6.455,14.418 14.418,14.418 7.962,0 14.418,-6.455 14.418,-14.418"
         transform="matrix(1.3333333,0,0,-1.3333333,0,1306.6667)"
         id="path107" />
    </g>
    <g
       opacity="0.770004"
       id="g119">
      <path
         d="m 408.236,896.544 c 0,-7.963 -6.455,-14.418 -14.418,-14.418 -7.963,0 -14.418,6.455 -14.418,14.418 0,7.963 6.455,14.418 14.418,14.418 7.963,0 14.418,-6.455 14.418,-14.418"
         transform="matrix(1.3333333,0,0,-1.3333333,0,1306.6667)"
         id="path119" />
    </g>
    <g
       opacity="0.770004"
       id="g131">
      <path
         d="m 1100.39,599.806 c 0,-7.963 -6.456,-14.418 -14.418,-14.418 -7.963,0 -14.418,6.455 -14.418,14.418 0,7.963 6.455,14.418 14.418,14.418 7.962,0 14.418,-6.455 14.418,-14.418"
         transform="matrix(1.3333333,0,0,-1.3333333,0,1306.6667)"
         id="path131" />
    </g>
    <g
       opacity="0.770004"
       id="g143">
      <path
         d="m 870.192,828.14 c 0,-7.962 -6.455,-14.418 -14.418,-14.418 -7.962,0 -14.418,6.456 -14.418,14.418 0,7.963 6.456,14.418 14.418,14.418 7.963,0 14.418,-6.455 14.418,-14.418"
         transform="matrix(1.3333333,0,0,-1.3333333,0,1306.6667)"
         id="path143" />
    </g>
    <g
       opacity="0.770004"
       id="g155">
      <path
         d="m 995.622,862.561 c 0,-7.963 -6.455,-14.418 -14.418,-14.418 -7.963,0 -14.418,6.455 -14.418,14.418 0,7.963 6.455,14.418 14.418,14.418 7.963,0 14.418,-6.455 14.418,-14.418"
         transform="matrix(1.3333333,0,0,-1.3333333,0,1306.6667)"
         id="path155" />
    </g>
    <g
       opacity="0.770004"
       id="g167">
      <path
         d="m 1074.042,245.769 c 0,-7.962 -6.455,-14.418 -14.418,-14.418 -7.963,0 -14.418,6.456 -14.418,14.418 0,7.963 6.455,14.418 14.418,14.418 7.963,0 14.418,-6.455 14.418,-14.418"
         transform="matrix(1.3333333,0,0,-1.3333333,0,1306.6667)"
         id="path167" />
    </g>
    <g
       opacity="0.770004"
       id="g179">
      <path
         d="m 849.113,175.428 c 0,-7.963 -6.456,-14.418 -14.418,-14.418 -7.963,0 -14.418,6.455 -14.418,14.418 0,7.962 6.455,14.418 14.418,14.418 7.962,0 14.418,-6.456 14.418,-14.418"
         transform="matrix(1.3333333,0,0,-1.3333333,0,1306.6667)"
         id="path179" />
    </g>
    <g
       opacity="0.770004"
       id="g191">
      <path
         d="m 373.039,125.297 c 0,-7.963 -6.456,-14.418 -14.418,-14.418 -7.963,0 -14.418,6.455 -14.418,14.418 0,7.963 6.455,14.418 14.418,14.418 7.962,0 14.418,-6.455 14.418,-14.418"
         transform="matrix(1.3333333,0,0,-1.3333333,0,1306.6667)"
         id="path191" />
    </g>
    <g
       opacity="0.770004"
       id="g203">
      <path
         d="m 643.283,569.035 c 0,-7.963 -6.456,-14.418 -14.418,-14.418 -7.963,0 -14.418,6.455 -14.418,14.418 0,7.963 6.455,14.418 14.418,14.418 7.962,0 14.418,-6.455 14.418,-14.418"
         transform="matrix(1.3333333,0,0,-1.3333333,0,1306.6667)"
         id="path203" />
    </g>
    <g
       opacity="0.770004"
       id="g215">
      <path
         d="m 584.957,62.558 c 0,-7.962 -6.455,-14.418 -14.418,-14.418 -7.963,0 -14.418,6.456 -14.418,14.418 0,7.963 6.455,14.418 14.418,14.418 7.963,0 14.418,-6.455 14.418,-14.418"
         transform="matrix(1.3333333,0,0,-1.3333333,0,1306.6667)"
         id="path215" />
    </g>
    <g
       opacity="0.770004"
       id="g227">
      <path
         d="m 608.93,382.942 c 0,-7.963 -6.455,-14.418 -14.418,-14.418 -7.963,0 -14.418,6.455 -14.418,14.418 0,7.962 6.455,14.418 14.418,14.418 7.963,0 14.418,-6.456 14.418,-14.418"
         transform="matrix(1.3333333,0,0,-1.3333333,0,1306.6667)"
         id="path227" />
    </g>
    <g
       opacity="0.770004"
       id="g239">
      <path
         d="m 606.858,189.846 c 0,-7.963 -6.456,-14.418 -14.418,-14.418 -7.963,0 -14.418,6.455 -14.418,14.418 0,7.962 6.455,14.418 14.418,14.418 7.962,0 14.418,-6.456 14.418,-14.418"
         transform="matrix(1.3333333,0,0,-1.3333333,0,1306.6667)"
         id="path239" />
    </g>
    <g
       opacity="0.770004"
       id="g251">
      <path
         d="m 471.58,693.598 c 0,-7.963 -6.455,-14.418 -14.418,-14.418 -7.963,0 -14.418,6.455 -14.418,14.418 0,7.963 6.455,14.418 14.418,14.418 7.963,0 14.418,-6.455 14.418,-14.418"
         transform="matrix(1.3333333,0,0,-1.3333333,0,1306.6667)"
         id="path251" />
    </g>
    <g
       opacity="0.770004"
       id="g263">
      <path
         d="m 841.356,513.948 c 0,-47.418 -38.439,-85.857 -85.857,-85.857 -47.418,0 -85.858,38.439 -85.858,85.857 0,47.418 38.44,85.858 85.858,85.858 47.418,0 85.857,-38.44 85.857,-85.858"
         transform="matrix(1.3333333,0,0,-1.3333333,0,1306.6667)"
         id="path263" />
    </g>
    <g
       opacity="0.770004"
       id="g278">
      <path
         d="m 964.272,166.557 c 18.283,34.869 61.371,48.315 96.239,30.032 34.869,-18.283 48.314,-61.371 30.031,-96.24 -18.282,-34.868 -61.37,-48.314 -96.239,-30.031 -34.868,18.283 -48.314,61.371 -30.031,96.239"
         transform="matrix(1.3333333,0,0,-1.3333333,0,1306.6667)"
         id="path278" />
    </g>
    <g
       opacity="0.770004"
       id="g293">
      <path
         d="m 645.432,772.52 c -30.719,-36.123 -84.904,-40.504 -121.027,-9.785 -36.122,30.718 -40.503,84.903 -9.785,121.026 30.718,36.123 84.904,40.504 121.026,9.785 36.123,-30.718 40.504,-84.903 9.786,-121.026"
         transform="matrix(1.3333333,0,0,-1.3333333,0,1306.6667)"
         id="path293" />
    </g>
    <g
       opacity="0.770004"
       id="g308">
      <path
         d="m 740.449,141.427 c -43.026,-19.931 -94.063,-1.21 -113.994,41.816 -19.931,43.026 -1.21,94.063 41.816,113.994 43.026,19.931 94.062,1.209 113.994,-41.816 19.931,-43.026 1.209,-94.063 -41.816,-113.994"
         transform="matrix(1.3333333,0,0,-1.3333333,0,1306.6667)"
         id="path308" />
    </g>
    <g
       opacity="0.770004"
       id="g323">
      <path
         d="M 913.608,589.824 C 860.8,565.361 798.16,588.339 773.697,641.147 c -24.463,52.808 -1.485,115.449 51.323,139.912 52.808,24.462 115.449,1.484 139.912,-51.324 24.462,-52.808 1.484,-115.448 -51.324,-139.911"
         transform="matrix(1.3333333,0,0,-1.3333333,0,1306.6667)"
         id="path323" />
    </g>
    <g
       opacity="0.770004"
       id="g338">
      <path
         d="m 309.566,251.128 c -38.212,43.897 -33.602,110.46 10.295,148.671 43.898,38.212 110.461,33.602 148.672,-10.295 C 506.745,345.606 502.135,279.043 458.237,240.832 414.34,202.62 347.777,207.23 309.566,251.128"
         transform="matrix(1.3333333,0,0,-1.3333333,0,1306.6667)"
         id="path338" />
    </g>
    <g
       opacity="0.770004"
       id="g353">
      <path
         d="m 484.433,303.592 c 16.086,5.376 33.484,-3.305 38.86,-19.391 5.377,-16.086 -3.305,-33.484 -19.39,-38.86 -16.086,-5.377 -33.484,3.305 -38.861,19.39 -5.376,16.086 3.306,33.484 19.391,38.861"
         transform="matrix(1.3333333,0,0,-1.3333333,0,1306.6667)"
         id="path353" />
    </g>
    <g
       opacity="0.770004"
       id="g368">
      <path
         d="m 789.897,378.75 c 5.646,15.992 23.188,24.38 39.181,18.733 15.993,-5.646 24.38,-23.188 18.734,-39.181 -5.647,-15.992 -23.189,-24.38 -39.182,-18.733 -15.992,5.646 -24.38,23.188 -18.733,39.181"
         transform="matrix(1.3333333,0,0,-1.3333333,0,1306.6667)"
         id="path368" />
    </g>
    <g
       opacity="0.770004"
       id="g383">
      <path
         d="m 599.209,691.979 c 16.085,5.376 33.484,-3.305 38.86,-19.391 5.376,-16.085 -3.305,-33.484 -19.391,-38.86 -16.085,-5.376 -33.484,3.305 -38.86,19.391 -5.376,16.085 3.305,33.484 19.391,38.86"
         transform="matrix(1.3333333,0,0,-1.3333333,0,1306.6667)"
         id="path383" />
    </g>
    <g
       opacity="0.770004"
       id="g398">
      <path
         d="m 1040.892,457.203 c 16.085,5.376 33.484,-3.305 38.86,-19.391 5.376,-16.086 -3.305,-33.484 -19.391,-38.86 -16.085,-5.377 -33.484,3.305 -38.86,19.39 -5.376,16.086 3.305,33.484 19.391,38.861"
         transform="matrix(1.3333333,0,0,-1.3333333,0,1306.6667)"
         id="path398" />
    </g>
    <g
       opacity="0.770004"
       id="g413">
      <path
         d="m 928.329,344.66 c 16.086,5.376 33.484,-3.306 38.86,-19.391 5.377,-16.086 -3.305,-33.484 -19.39,-38.86 -16.086,-5.377 -33.484,3.305 -38.861,19.39 -5.376,16.086 3.305,33.484 19.391,38.861"
         transform="matrix(1.3333333,0,0,-1.3333333,0,1306.6667)"
         id="path413" />
    </g>
    <g
       opacity="0.770004"
       id="g428">
      <path
         d="m 461.859,131.835 c 16.085,5.376 33.484,-3.305 38.86,-19.391 5.376,-16.086 -3.305,-33.484 -19.391,-38.86 -16.085,-5.377 -33.484,3.305 -38.86,19.39 -5.376,16.086 3.305,33.484 19.391,38.861"
         transform="matrix(1.3333333,0,0,-1.3333333,0,1306.6667)"
         id="path428" />
    </g>
    <g
       opacity="0.770004"
       id="g443">
      <path
         d="m 400.393,813.003 c 16.086,5.377 33.484,-3.305 38.861,-19.391 5.376,-16.085 -3.305,-33.483 -19.391,-38.86 -16.086,-5.376 -33.484,3.305 -38.86,19.391 -5.377,16.085 3.305,33.484 19.39,38.86"
         transform="matrix(1.3333333,0,0,-1.3333333,0,1306.6667)"
         id="path443" />
    </g>
    <g
       opacity="0.770004"
       id="g458">
      <path
         d="m 383.891,524.269 c 31.625,10.571 65.832,-6.498 76.402,-38.123 10.571,-31.626 -6.498,-65.833 -38.123,-76.403 -31.626,-10.571 -65.833,6.498 -76.403,38.124 -10.571,31.625 6.498,65.832 38.124,76.402"
         transform="matrix(1.3333333,0,0,-1.3333333,0,1306.6667)"
         id="path458" />
    </g>
    <g
       opacity="0.770004"
       id="g473">
      <path
         d="m 473.197,731.432 c 7.446,32.503 39.831,52.816 72.335,45.369 32.503,-7.446 52.816,-39.831 45.37,-72.335 -7.447,-32.503 -39.832,-52.816 -72.336,-45.37 -32.503,7.447 -52.816,39.832 -45.369,72.336"
         transform="matrix(1.3333333,0,0,-1.3333333,0,1306.6667)"
         id="path473" />
    </g>
    <g
       opacity="0.770004"
       id="g488">
      <path
         d="m 299.079,778.465 c -14.109,30.213 -1.054,66.144 29.159,80.253 30.214,14.109 66.144,1.054 80.253,-29.159 14.11,-30.214 1.054,-66.144 -29.159,-80.253 -30.213,-14.109 -66.144,-1.054 -80.253,29.159"
         transform="matrix(1.3333333,0,0,-1.3333333,0,1306.6667)"
         id="path488" />
    </g>
    <g
       opacity="0.770004"
       id="g503">
      <path
         d="m 1234.464,614.224 c 0,-7.963 -6.455,-14.418 -14.418,-14.418 -7.963,0 -14.418,6.455 -14.418,14.418 0,7.963 6.455,14.418 14.418,14.418 7.963,0 14.418,-6.455 14.418,-14.418"
         transform="matrix(1.3333333,0,0,-1.3333333,0,1306.6667)"
         id="path503" />
    </g>
    <g
       opacity="0.770004"
       id="g515">
      <path
         d="m 1285.645,896.544 c 0,-7.963 -6.455,-14.418 -14.418,-14.418 -7.963,0 -14.418,6.455 -14.418,14.418 0,7.963 6.455,14.418 14.418,14.418 7.963,0 14.418,-6.455 14.418,-14.418"
         transform="matrix(1.3333333,0,0,-1.3333333,0,1306.6667)"
         id="path515" />
    </g>
    <g
       opacity="0.770004"
       id="g527">
      <path
         d="m 1250.448,125.297 c 0,-7.963 -6.455,-14.418 -14.418,-14.418 -7.963,0 -14.418,6.455 -14.418,14.418 0,7.963 6.455,14.418 14.418,14.418 7.963,0 14.418,-6.455 14.418,-14.418"
         transform="matrix(1.3333333,0,0,-1.3333333,0,1306.6667)"
         id="path527" />
    </g>
    <g
       opacity="0.770004"
       id="g539">
      <path
         d="m 1186.975,251.128 c -38.211,43.897 -33.602,110.46 10.296,148.671 43.897,38.212 110.46,33.602 148.671,-10.295 38.212,-43.898 33.602,-110.461 -10.295,-148.672 -43.898,-38.212 -110.461,-33.602 -148.672,10.296"
         transform="matrix(1.3333333,0,0,-1.3333333,0,1306.6667)"
         id="path539" />
    </g>
    <g
       opacity="0.770004"
       id="g554">
      <path
         d="m 1277.803,813.003 c 16.085,5.377 33.484,-3.305 38.86,-19.391 5.376,-16.085 -3.305,-33.483 -19.391,-38.86 -16.085,-5.376 -33.484,3.305 -38.86,19.391 -5.376,16.085 3.305,33.484 19.391,38.86"
         transform="matrix(1.3333333,0,0,-1.3333333,0,1306.6667)"
         id="path554" />
    </g>
    <g
       opacity="0.770004"
       id="g569">
      <path
         d="m 1261.3,524.269 c 31.626,10.571 65.832,-6.498 76.403,-38.123 10.57,-31.626 -6.499,-65.833 -38.124,-76.403 -31.626,-10.571 -65.833,6.498 -76.403,38.124 -10.57,31.625 6.498,65.832 38.124,76.402"
         transform="matrix(1.3333333,0,0,-1.3333333,0,1306.6667)"
         id="path569" />
    </g>
    <g
       opacity="0.770004"
       id="g584">
      <path
         d="m 1176.488,778.465 c -14.109,30.213 -1.054,66.144 29.16,80.253 30.213,14.109 66.144,1.054 80.253,-29.159 14.109,-30.214 1.054,-66.144 -29.16,-80.253 -30.213,-14.109 -66.144,-1.054 -80.253,29.159"
         transform="matrix(1.3333333,0,0,-1.3333333,0,1306.6667)"
         id="path584" />
    </g>
    <g
       opacity="0.770004"
       id="g599">
      <path
         d="m 1037.79,792.977 c -0.542,16.952 12.761,31.133 29.713,31.675 16.951,0.542 31.132,-12.761 31.674,-29.713 0.542,-16.951 -12.761,-31.132 -29.713,-31.674 -16.951,-0.542 -31.132,12.761 -31.674,29.712"
         transform="matrix(1.3333333,0,0,-1.3333333,0,1306.6667)"
         id="path599" />
    </g>
    <g
       opacity="0.770004"
       id="g614">
      <path
         d="m 184.967,542.371 c 0,-23.895 -19.371,-43.266 -43.266,-43.266 -23.896,0 -43.267,19.371 -43.267,43.266 0,23.895 19.371,43.266 43.267,43.266 23.895,0 43.266,-19.371 43.266,-43.266"
         transform="matrix(1.3333333,0,0,-1.3333333,0,1306.6667)"
         id="path614" />
    </g>
    <g
       opacity="0.770004"
       id="g626">
      <path
         d="m 191.464,640.09 c 0,-7.963 -6.456,-14.418 -14.418,-14.418 -7.963,0 -14.418,6.455 -14.418,14.418 0,7.962 6.455,14.418 14.418,14.418 7.962,0 14.418,-6.456 14.418,-14.418"
         transform="matrix(1.3333333,0,0,-1.3333333,0,1306.6667)"
         id="path626" />
    </g>
    <g
       opacity="0.770004"
       id="g638">
      <path
         d="m 165.116,286.053 c 0,-7.963 -6.455,-14.418 -14.418,-14.418 -7.963,0 -14.418,6.455 -14.418,14.418 0,7.963 6.455,14.418 14.418,14.418 7.963,0 14.418,-6.455 14.418,-14.418"
         transform="matrix(1.3333333,0,0,-1.3333333,0,1306.6667)"
         id="path638" />
    </g>
    <g
       opacity="0.770004"
       id="g650">
      <path
         d="m 55.346,206.841 c 18.283,34.868 61.371,48.314 96.239,30.031 34.869,-18.283 48.314,-61.371 30.032,-96.239 -18.283,-34.869 -61.371,-48.314 -96.24,-30.032 -34.868,18.283 -48.314,61.371 -30.031,96.24"
         transform="matrix(1.3333333,0,0,-1.3333333,0,1306.6667)"
         id="path650" />
    </g>
    <g
       opacity="0.770004"
       id="g665">
      <path
         d="m 131.966,497.486 c 16.085,5.376 33.484,-3.305 38.86,-19.391 5.376,-16.085 -3.305,-33.484 -19.391,-38.86 -16.085,-5.376 -33.484,3.305 -38.86,19.391 -5.376,16.085 3.305,33.484 19.391,38.86"
         transform="matrix(1.3333333,0,0,-1.3333333,0,1306.6667)"
         id="path665" />
    </g>
    <g
       opacity="0.770004"
       id="g680">
      <path
         d="m 128.864,833.261 c -0.542,16.951 12.761,31.133 29.713,31.674 16.951,0.542 31.132,-12.761 31.674,-29.712 0.542,-16.952 -12.761,-31.133 -29.713,-31.675 -16.951,-0.542 -31.132,12.761 -31.674,29.713"
         transform="matrix(1.3333333,0,0,-1.3333333,0,1306.6667)"
         id="path680" />
    </g>
    <g
       opacity="0.770004"
       id="g695">
      <path
         d="m 713.97,851.694 c -1.065,33.328 25.09,61.209 58.418,62.275 33.328,1.065 61.21,-25.09 62.275,-58.418 1.065,-33.329 -25.089,-61.21 -58.418,-62.275 -33.328,-1.065 -61.209,25.089 -62.275,58.418"
         transform="matrix(1.3333333,0,0,-1.3333333,0,1306.6667)"
         id="path695" />
    </g>
    <g
       class="highlight"
       id="g698">
      <path
         d="m 742.744,808.667 c -0.29,9.082 14.764,0.472 32.976,1.054 18.212,0.582 32.685,10.136 32.975,1.054 0.291,-9.083 -14.238,-16.917 -32.45,-17.499 -18.212,-0.582 -33.211,6.309 -33.501,15.391"
         transform="matrix(1.3333333,0,0,-1.3333333,0,1306.6667)"
         id="path698" />
    </g>
    <g
       class="highlight"
       id="g701">
      <path
         d="m 729.362,885.195 c 9.082,0.29 0.471,-14.764 1.053,-32.976 0.582,-18.212 10.137,-32.685 1.054,-32.976 -9.082,-0.29 -16.917,14.239 -17.499,32.451 -0.582,18.211 6.309,33.21 15.392,33.501"
         transform="matrix(1.3333333,0,0,-1.3333333,0,1306.6667)"
         id="path701" />
    </g>
  </g>
</svg>
