<?xml version="1.0" encoding="UTF-8" standalone="no"?>
<svg
   version="1.1"
   id="svg1"
   viewBox="0 0 2210.866 2210.866"
   sodipodi:docname="cleaning bee.svg"
   inkscape:version="1.3.2 (091e20ef0f, 2023-11-25)"
   width="2210.866"
   height="2210.866"
   xmlns:inkscape="http://www.inkscape.org/namespaces/inkscape"
   xmlns:sodipodi="http://sodipodi.sourceforge.net/DTD/sodipodi-0.dtd"
   xmlns:xlink="http://www.w3.org/1999/xlink"
   xmlns="http://www.w3.org/2000/svg"
   xmlns:svg="http://www.w3.org/2000/svg">
  <defs
     id="defs1">
    <linearGradient
       x1="0"
       y1="0"
       x2="1"
       y2="0"
       gradientUnits="userSpaceOnUse"
       gradientTransform="matrix(362.682,-852.832,852.832,362.682,16148.5,8364.8)"
       spreadMethod="pad"
       id="linearGradient188">
      <stop
         style="stop-opacity:1;stop-color:#000000"
         offset="0"
         id="stop184" />
      <stop
         style="stop-opacity:1;stop-color:#351f17"
         offset="0.44680587"
         id="stop185" />
      <stop
         style="stop-opacity:1;stop-color:#351f17"
         offset="0.668712"
         id="stop186" />
      <stop
         style="stop-opacity:1;stop-color:#351f17"
         offset="0.83205005"
         id="stop187" />
      <stop
         style="stop-opacity:1;stop-color:#000000"
         offset="1"
         id="stop188" />
    </linearGradient>
    <linearGradient
       x1="0"
       y1="0"
       x2="1"
       y2="0"
       gradientUnits="userSpaceOnUse"
       gradientTransform="matrix(542.69199,-47.004799,47.004799,542.69199,1482.8772,2099.52)"
       spreadMethod="pad"
       id="linearGradient224">
      <stop
         style="stop-opacity:1;stop-color:#000000"
         offset="0"
         id="stop220" />
      <stop
         style="stop-opacity:1;stop-color:#351f17"
         offset="0.44680587"
         id="stop221" />
      <stop
         style="stop-opacity:1;stop-color:#351f17"
         offset="0.668712"
         id="stop222" />
      <stop
         style="stop-opacity:1;stop-color:#351f17"
         offset="0.83205005"
         id="stop223" />
      <stop
         style="stop-opacity:1;stop-color:#000000"
         offset="1"
         id="stop224" />
    </linearGradient>
    <linearGradient
       x1="0"
       y1="0"
       x2="1"
       y2="0"
       gradientUnits="userSpaceOnUse"
       gradientTransform="matrix(-393.72799,252.44799,-252.44799,-393.72799,2091.1066,2017.2667)"
       spreadMethod="pad"
       id="linearGradient229">
      <stop
         style="stop-opacity:1;stop-color:#000000"
         offset="0"
         id="stop225" />
      <stop
         style="stop-opacity:1;stop-color:#351f17"
         offset="0.44680587"
         id="stop226" />
      <stop
         style="stop-opacity:1;stop-color:#351f17"
         offset="0.668712"
         id="stop227" />
      <stop
         style="stop-opacity:1;stop-color:#351f17"
         offset="0.83205005"
         id="stop228" />
      <stop
         style="stop-opacity:1;stop-color:#000000"
         offset="1"
         id="stop229" />
    </linearGradient>
    <radialGradient
       fx="0"
       fy="0"
       cx="0"
       cy="0"
       r="1"
       gradientUnits="userSpaceOnUse"
       gradientTransform="matrix(-2432.29,610.052,968.254,2240.18,41368.9,8671.9)"
       spreadMethod="pad"
       id="radialGradient444">
      <stop
         style="stop-opacity:1;stop-color:#ade5fa"
         offset="0"
         id="stop441" />
      <stop
         style="stop-opacity:1;stop-color:#ade5fa"
         offset="0"
         id="stop442" />
      <stop
         style="stop-opacity:1;stop-color:#ade5fa"
         offset="0"
         id="stop443" />
      <stop
         style="stop-opacity:1;stop-color:#ade5fa"
         offset="1"
         id="stop444" />
    </radialGradient>
    <clipPath
       clipPathUnits="userSpaceOnUse"
       id="clipPath444">
      <path
         d="m 41820,8417.1 c -352.8,0 -645.2,142.5 -752.2,413.1 -181.1,458.3 264.1,1046.4 966.7,1229.2 171.2,44.5 353.6,66.2 528.5,66.2 408.9,0 777,-118.7 865.6,-342.8 29.3,-74.3 28.4,-161 3.2,-254 -658.8,-181.7 -1209.4,-582.3 -1537,-1109.6 -25.2,-1.4 -50.1,-2.1 -74.8,-2.1"
         id="path444" />
    </clipPath>
    <radialGradient
       fx="0"
       fy="0"
       cx="0"
       cy="0"
       r="1"
       gradientUnits="userSpaceOnUse"
       gradientTransform="matrix(-2504.22,413.647,-229.862,1879.56,41280.3,10724.4)"
       spreadMethod="pad"
       id="radialGradient448">
      <stop
         style="stop-opacity:1;stop-color:#ade5fa"
         offset="0"
         id="stop445" />
      <stop
         style="stop-opacity:1;stop-color:#ade5fa"
         offset="0"
         id="stop446" />
      <stop
         style="stop-opacity:1;stop-color:#ade5fa"
         offset="0"
         id="stop447" />
      <stop
         style="stop-opacity:1;stop-color:#ade5fa"
         offset="1"
         id="stop448" />
    </radialGradient>
    <clipPath
       clipPathUnits="userSpaceOnUse"
       id="clipPath448">
      <path
         d="m 42685.4,10871.8 c 503.9,-286.1 940,-778.5 832.1,-1019.5 -108,-240.8 -765.7,-243.6 -1314.6,-58 -674.8,228 -1148.5,678.9 -994,1023.9 154.4,345 857.1,405.1 1476.5,53.6 z"
         id="path448" />
    </clipPath>
    <linearGradient
       x1="0"
       y1="0"
       x2="1"
       y2="0"
       gradientUnits="userSpaceOnUse"
       gradientTransform="matrix(857.718,-3451.79,-3451.79,-857.718,47398.5,12091.2)"
       spreadMethod="pad"
       id="linearGradient572">
      <stop
         style="stop-opacity:1;stop-color:#ad252b"
         offset="0"
         id="stop571" />
      <stop
         style="stop-opacity:1;stop-color:#ed1c24"
         offset="1"
         id="stop572" />
    </linearGradient>
    <clipPath
       clipPathUnits="userSpaceOnUse"
       id="clipPath572">
      <path
         d="m 50725,13247.7 c 656.5,139.1 761.7,-712.7 105.7,-2010.7 -656,-1298 823,-1436.2 823,-1436.2 0,0 -1390,-1628.6 -4291.4,-649.7 -2901.5,978.8 -3567.8,1116.7 -3567.8,1116.7 l 493.5,880.5 c 0,0 1520,637.9 3195.9,553.7 1675.8,-84.2 3241.1,1545.7 3241.1,1545.7 z"
         id="path572" />
    </clipPath>
    <linearGradient
       x1="0"
       y1="0"
       x2="1"
       y2="0"
       gradientUnits="userSpaceOnUse"
       gradientTransform="matrix(-310.134,1628.2,1628.2,310.134,47659.8,11096.8)"
       spreadMethod="pad"
       id="linearGradient574">
      <stop
         style="stop-opacity:1;stop-color:#ef3267"
         offset="0"
         id="stop573" />
      <stop
         style="stop-opacity:1;stop-color:#d91920"
         offset="1"
         id="stop574" />
    </linearGradient>
    <clipPath
       clipPathUnits="userSpaceOnUse"
       id="clipPath574">
      <path
         d="m 43893.5,10864.7 c 0,0 2026.1,1329.1 3860.1,1042.1 1833.9,-287.1 1912.2,1241.3 3025.1,1361.6 185.1,20 289.9,-62.3 289.9,-62.3 0,0 -274.4,99.3 -558.5,-257.2 -253.1,-317.7 -456.8,-1238 -218.8,-1677.5 0,0 -711.4,-684.4 -2836.9,5.8 -566.5,184 -1013.5,304.9 -1438.9,250.5 -1158.1,-148 -1829.1,-1012.9 -1829.1,-1012.9 z"
         id="path574" />
    </clipPath>
    <radialGradient
       fx="0"
       fy="0"
       cx="0"
       cy="0"
       r="1"
       gradientUnits="userSpaceOnUse"
       gradientTransform="matrix(2311.83,971.161,-1296.09,2067.9,47018.9,9101.9)"
       spreadMethod="pad"
       id="radialGradient578">
      <stop
         style="stop-opacity:1;stop-color:#ade5fa"
         offset="0"
         id="stop575" />
      <stop
         style="stop-opacity:1;stop-color:#ade5fa"
         offset="0"
         id="stop576" />
      <stop
         style="stop-opacity:1;stop-color:#ade5fa"
         offset="0"
         id="stop577" />
      <stop
         style="stop-opacity:1;stop-color:#ade5fa"
         offset="1"
         id="stop578" />
    </radialGradient>
    <clipPath
       clipPathUnits="userSpaceOnUse"
       id="clipPath578">
      <path
         d="m 46151.1,10372.6 c -587.3,60.4 -1259.6,-148.8 -1336.3,-484.4 -76.5,-335.6 438.4,-815.8 993.9,-1016.2 682.6,-246.3 1374.2,-48.6 1483.9,431.9 109.7,480.5 -419.4,994.4 -1141.5,1068.7 z"
         id="path578" />
    </clipPath>
    <radialGradient
       fx="0"
       fy="0"
       cx="0"
       cy="0"
       r="1"
       gradientUnits="userSpaceOnUse"
       gradientTransform="matrix(2412.81,787.864,-57.2484,1892.69,46795.9,11144.2)"
       spreadMethod="pad"
       id="radialGradient582">
      <stop
         style="stop-opacity:1;stop-color:#ade5fa"
         offset="0"
         id="stop579" />
      <stop
         style="stop-opacity:1;stop-color:#ade5fa"
         offset="0"
         id="stop580" />
      <stop
         style="stop-opacity:1;stop-color:#ade5fa"
         offset="0"
         id="stop581" />
      <stop
         style="stop-opacity:1;stop-color:#ade5fa"
         offset="1"
         id="stop582" />
    </radialGradient>
    <clipPath
       clipPathUnits="userSpaceOnUse"
       id="clipPath582">
      <path
         d="m 45384.7,11077.2 c -454.9,-359 -811.4,-911.8 -668.3,-1133.6 143.2,-221.8 793.8,-125 1308.3,141.5 632.5,327.5 1032.5,845 827.6,1162.6 -204.9,317.7 -908.6,270.7 -1467.6,-170.5 z"
         id="path582" />
    </clipPath>
    <radialGradient
       fx="0"
       fy="0"
       cx="0"
       cy="0"
       r="1"
       gradientUnits="userSpaceOnUse"
       gradientTransform="matrix(2091.54,0,0,-2091.54,43193.9,9980.6)"
       spreadMethod="pad"
       id="radialGradient603">
      <stop
         style="stop-opacity:1;stop-color:#855333"
         offset="0"
         id="stop601" />
      <stop
         style="stop-opacity:1;stop-color:#351f17"
         offset="0.66815889"
         id="stop602" />
      <stop
         style="stop-opacity:1;stop-color:#351f17"
         offset="1"
         id="stop603" />
    </radialGradient>
    <clipPath
       clipPathUnits="userSpaceOnUse"
       id="clipPath603">
      <path
         d="m 45455.2,10065.9 c 72.6,-773.3 -555.6,-1194.2 -1404.3,-1273.9 -848.6,-79.4 -1596.7,212.5 -1669.1,985.8 -72.6,773.4 556.7,1464.7 1405.3,1544.3 848.7,79.6 1595.5,-482.5 1668.1,-1256.2 z"
         id="path603" />
    </clipPath>
    <linearGradient
       x1="0"
       y1="0"
       x2="1"
       y2="0"
       gradientUnits="userSpaceOnUse"
       gradientTransform="matrix(-7.70214,-1105.17,-1105.17,7.70214,43794.5,11404.3)"
       spreadMethod="pad"
       id="linearGradient606">
      <stop
         style="stop-opacity:1;stop-color:#901e23"
         offset="0"
         id="stop605" />
      <stop
         style="stop-opacity:1;stop-color:#ed1c24"
         offset="1"
         id="stop606" />
    </linearGradient>
    <clipPath
       clipPathUnits="userSpaceOnUse"
       id="clipPath606">
      <path
         d="m 42522.8,11417.2 c 0,453.1 569.4,820.4 1271.8,820.4 702.4,0 1271.8,-367.3 1271.8,-820.4 0,-453.1 -569.4,-820.4 -1271.8,-820.4 -702.4,0 -1271.8,367.3 -1271.8,820.4 z"
         id="path606" />
    </clipPath>
    <linearGradient
       x1="0"
       y1="0"
       x2="1"
       y2="0"
       gradientUnits="userSpaceOnUse"
       gradientTransform="matrix(529.849,441.541,441.541,-529.849,42914.1,10285.8)"
       spreadMethod="pad"
       id="linearGradient608">
      <stop
         style="stop-opacity:1;stop-color:#ef3267"
         offset="0"
         id="stop607" />
      <stop
         style="stop-opacity:1;stop-color:#d91920"
         offset="1"
         id="stop608" />
    </linearGradient>
    <clipPath
       clipPathUnits="userSpaceOnUse"
       id="clipPath608">
      <path
         d="m 43735.3,10920.6 c 0,0 -942.4,108.5 -1046.3,-764.5 0,0 896,-166 1046.3,764.5 z"
         id="path608" />
    </clipPath>
    <linearGradient
       x1="0"
       y1="0"
       x2="1"
       y2="0"
       gradientUnits="userSpaceOnUse"
       gradientTransform="matrix(-370.894,629.932,629.932,370.894,44415.4,10315.4)"
       spreadMethod="pad"
       id="linearGradient610">
      <stop
         style="stop-opacity:1;stop-color:#ef3267"
         offset="0"
         id="stop609" />
      <stop
         style="stop-opacity:1;stop-color:#d91920"
         offset="1"
         id="stop610" />
    </linearGradient>
    <clipPath
       clipPathUnits="userSpaceOnUse"
       id="clipPath610">
      <path
         d="m 43758.8,10920.6 c 0,0 942.4,108.5 1046.2,-764.5 0,0 -895.9,-166 -1046.2,764.5 z"
         id="path610" />
    </clipPath>
    <radialGradient
       fx="0"
       fy="0"
       cx="0"
       cy="0"
       r="1"
       gradientUnits="userSpaceOnUse"
       gradientTransform="matrix(353.232,0,0,-353.232,43669.1,10836.3)"
       spreadMethod="pad"
       id="radialGradient612">
      <stop
         style="stop-opacity:1;stop-color:#ef3267"
         offset="0"
         id="stop611" />
      <stop
         style="stop-opacity:1;stop-color:#d91920"
         offset="1"
         id="stop612" />
    </radialGradient>
    <clipPath
       clipPathUnits="userSpaceOnUse"
       id="clipPath612">
      <path
         d="m 43758.8,10599.3 c -157,0 -284.3,127.2 -284.3,284.3 0,157 127.3,284.3 284.3,284.3 157,0 284.3,-127.3 284.3,-284.3 0,-157.1 -127.3,-284.3 -284.3,-284.3 z"
         id="path612" />
    </clipPath>
    <linearGradient
       inkscape:collect="always"
       xlink:href="#linearGradient188"
       id="linearGradient3-1"
       gradientUnits="userSpaceOnUse"
       gradientTransform="matrix(362.682,-852.832,852.832,362.682,16148.5,8364.8)"
       x1="0"
       y1="0"
       x2="1"
       y2="0"
       spreadMethod="pad" />
    <clipPath
       clipPathUnits="userSpaceOnUse"
       id="clipPath188-2-6">
      <path
         d="m 15036.4,7895.4 2555.5,1081.5 -2500.7,-2132 z"
         id="path188-6-1" />
    </clipPath>
    <radialGradient
       fx="0"
       fy="0"
       cx="0"
       cy="0"
       r="1"
       gradientUnits="userSpaceOnUse"
       gradientTransform="matrix(478.81999,21.185066,-21.185066,478.81999,5732.8779,1954.2804)"
       spreadMethod="pad"
       id="radialGradient198-1-5">
      <stop
         style="stop-opacity:1;stop-color:#fbc707"
         offset="0"
         id="stop193-8-5" />
      <stop
         style="stop-opacity:1;stop-color:#fbc707"
         offset="0.288344"
         id="stop194-7-4" />
      <stop
         style="stop-opacity:1;stop-color:#fbc008"
         offset="0.373985"
         id="stop195-9-7" />
      <stop
         style="stop-opacity:1;stop-color:#f47216"
         offset="0.735486"
         id="stop196-2-6" />
      <stop
         style="stop-opacity:1;stop-color:#d04217"
         offset="0.941093"
         id="stop197-0-5" />
      <stop
         style="stop-opacity:1;stop-color:#d04217"
         offset="1"
         id="stop198-2-6" />
    </radialGradient>
    <linearGradient
       inkscape:collect="always"
       xlink:href="#linearGradient224"
       id="linearGradient6"
       gradientUnits="userSpaceOnUse"
       gradientTransform="matrix(542.69199,-47.004799,47.004799,542.69199,5656.382,2118.8535)"
       x1="0"
       y1="0"
       x2="1"
       y2="0"
       spreadMethod="pad" />
    <linearGradient
       inkscape:collect="always"
       xlink:href="#linearGradient229"
       id="linearGradient7"
       gradientUnits="userSpaceOnUse"
       gradientTransform="matrix(-393.72799,252.44799,-252.44799,-393.72799,6264.6114,2036.6002)"
       x1="0"
       y1="0"
       x2="1"
       y2="0"
       spreadMethod="pad" />
    <radialGradient
       fx="0"
       fy="0"
       cx="0"
       cy="0"
       r="1"
       gradientUnits="userSpaceOnUse"
       gradientTransform="matrix(765.53198,0,0,765.53198,5768.6857,995.61345)"
       spreadMethod="pad"
       id="radialGradient214-7-6">
      <stop
         style="stop-opacity:1;stop-color:#fbc707"
         offset="0"
         id="stop211-5-8" />
      <stop
         style="stop-opacity:1;stop-color:#fbc707"
         offset="0.288344"
         id="stop212-3-9" />
      <stop
         style="stop-opacity:1;stop-color:#f25d19"
         offset="0.769311"
         id="stop213-5-2" />
      <stop
         style="stop-opacity:1;stop-color:#fbc707"
         offset="1"
         id="stop214-6-6" />
    </radialGradient>
  </defs>
  <sodipodi:namedview
     id="namedview1"
     pagecolor="#ffffff"
     bordercolor="#000000"
     borderopacity="0.25"
     inkscape:showpageshadow="2"
     inkscape:pageopacity="0.0"
     inkscape:pagecheckerboard="0"
     inkscape:deskcolor="#d1d1d1"
     inkscape:zoom="0.1767767"
     inkscape:cx="-593.96968"
     inkscape:cy="22.627416"
     inkscape:window-width="3440"
     inkscape:window-height="1368"
     inkscape:window-x="0"
     inkscape:window-y="275"
     inkscape:window-maximized="1"
     inkscape:current-layer="layer3">
    <inkscape:page
       x="0"
       y="0"
       inkscape:label="1"
       id="page1"
       width="2210.866"
       height="2210.866"
       margin="0"
       bleed="0"
       inkscape:export-filename="cleaning bee.webp"
       inkscape:export-xdpi="96"
       inkscape:export-ydpi="96" />
  </sodipodi:namedview>
  <g
     id="g1"
     inkscape:groupmode="layer"
     inkscape:label="1"
     transform="translate(-4866.269,-407.69384)">
    <g
       inkscape:groupmode="layer"
       id="layer3"
       inkscape:label="Bee #3">
      <g
         id="g2"
         transform="translate(106)">
        <path
           id="path189-2-0"
           d="m 5542.8114,2599.3468 c -12.24,0 -22.5866,-9.4266 -23.52,-21.8266 -5.1866,-68.8134 6.4934,-157.6133 34.7067,-263.96 20.84,-78.52 42.8533,-136.4267 43.7867,-138.8533 4.64,-12.1734 18.2933,-18.28 30.4666,-13.6267 12.1867,4.64 18.2934,18.2933 13.64,30.48 -0.8666,2.28 -87,230.0667 -75.52,382.4 0.9867,13.0133 -8.76,24.3466 -21.76,25.32 -0.6133,0.053 -1.2133,0.067 -1.8,0.067"
           style="fill:#231f20;fill-opacity:1;fill-rule:nonzero;stroke:none;stroke-width:0.133333"
           sodipodi:nodetypes="ccccccccc" />
        <path
           id="path184-9-7"
           d="m 15036.4,7895.4 2555.5,1081.5 -2500.7,-2132 z"
           style="fill:url(#linearGradient3-1);fill-opacity:1;fill-rule:nonzero;stroke:none"
           transform="matrix(0.13333333,0,0,-0.13333333,4173.5048,3155.0135)"
           clip-path="url(#clipPath188-2-6)" />
        <path
           id="path440"
           d="m 6591.6798,2586.84 c 0,17.52 -363.84,31.72 -812.6666,31.72 -448.8267,0 -812.68,-14.2 -812.68,-31.72 0,-17.5333 363.8533,-31.7333 812.68,-31.7333 448.8266,0 812.6666,14.2 812.6666,31.7333"
           style="fill:#aeacac;fill-opacity:1;fill-rule:nonzero;stroke:none;stroke-width:0.133333" />
        <path
           id="path246-3-8"
           d="m 6188.9181,2599.3468 c -0.5867,0 -1.1867,-0.013 -1.8,-0.067 -13,-0.9734 -22.7467,-12.3067 -21.76,-25.32 11.48,-152.48 -68.84,-364.1867 -69.6533,-366.3067 -4.6667,-12.1733 1.4266,-25.8266 13.6,-30.4933 12.16,-4.6533 25.8266,1.4267 30.4933,13.6 3.48,9.0667 84.92,223.8133 72.64,386.7466 -0.9334,12.4 -11.28,21.84 -23.52,21.84"
           style="fill:#231f20;fill-opacity:1;fill-rule:nonzero;stroke:none;stroke-width:0.133333" />
        <path
           id="path441"
           d="m 41820,8417.1 c -352.8,0 -645.2,142.5 -752.2,413.1 -181.1,458.3 264.1,1046.4 966.7,1229.2 171.2,44.5 353.6,66.2 528.5,66.2 408.9,0 777,-118.7 865.6,-342.8 29.3,-74.3 28.4,-161 3.2,-254 -658.8,-181.7 -1209.4,-582.3 -1537,-1109.6 -25.2,-1.4 -50.1,-2.1 -74.8,-2.1"
           style="fill:url(#radialGradient444);fill-opacity:1;fill-rule:nonzero;stroke:none"
           transform="matrix(0.13333333,0,0,-0.13333333,0,3135.68)"
           clip-path="url(#clipPath444)" />
        <path
           id="path445"
           d="m 42685.4,10871.8 c 503.9,-286.1 940,-778.5 832.1,-1019.5 -108,-240.8 -765.7,-243.6 -1314.6,-58 -674.8,228 -1148.5,678.9 -994,1023.9 154.4,345 857.1,405.1 1476.5,53.6"
           style="fill:url(#radialGradient448);fill-opacity:1;fill-rule:nonzero;stroke:none"
           transform="matrix(0.13333333,0,0,-0.13333333,0,3135.68)"
           clip-path="url(#clipPath448)" />
        <path
           id="path449"
           d="m 5791.4665,1834.1734 c -0.2933,-0.96 -0.6133,-1.92 -0.9866,-2.8534 -16.88,-42.68 -109.7067,-56.6933 -185.88,-36.8933 -11.4667,2.9867 -22.4134,6.7867 -32.76,11.2533 16.68,9.1734 35.2933,17.36 55.2133,24.0934 62.4,21.0933 135.3467,23.9333 164.4133,4.4"
           style="fill:#76d2f6;fill-opacity:1;fill-rule:nonzero;stroke:none;stroke-width:0.133333" />
        <path
           id="path450"
           d="m 5141.0265,1837.6667 c 3.3867,-1.64 6.76,-3.1733 10.16,-4.76 3.3867,-1.5733 6.8,-3.04 10.2,-4.5733 6.8134,-3.0667 13.6667,-5.96 20.52,-8.9067 6.8534,-2.9733 13.7734,-5.7333 20.6667,-8.5733 l 10.36,-4.2134 c 3.4533,-1.4133 6.9467,-2.72 10.4133,-4.08 l 20.8667,-8.1066 c 6.96,-2.6534 13.9733,-5.1867 20.96,-7.7867 l 10.5067,-3.8667 c 3.5066,-1.2533 7,-2.6 10.52,-3.8 l 21.1333,-7.3866 10.5733,-3.6667 5.2934,-1.8267 c 1.76,-0.6133 3.5333,-1.2133 5.3066,-1.7866 l 21.2667,-7 21.2933,-6.92 c 7.12,-2.2534 14.2667,-4.3867 21.4,-6.5867 l 21.4534,-6.44 10.7333,-3.2267 10.7733,-3.0266 43.1867,-11.9734 c 3.5867,-1.0533 7.2133,-1.9466 10.8133,-2.9066 3.6134,-0.96 7.2134,-1.96 10.8134,-2.9334 7.2133,-1.9866 14.4133,-4.0266 21.6,-6.1066 l 21.5866,-6.28 10.84,-2.9467 10.8534,-2.88 c 14.4933,-3.76 29.0533,-7.2267 43.7333,-10.08 14.7067,-2.6 29.5333,-4.6533 44.4133,-6.28 l 11.1734,-1.16 11.1733,-1.04 c 3.7333,-0.3467 7.48,-0.5733 11.2267,-0.7867 3.7466,-0.2133 7.48,-0.44 11.24,-0.6 14.9866,-0.72 30.0133,-1.1466 45.08,-1.16 3.76,-0.027 7.5333,0.027 11.2933,0.053 3.7733,0.1333 7.56,0.2533 11.3467,0.44 7.56,0.3333 15.1333,0.7866 22.7066,1.36 7.5867,0.5866 15.16,1.28 22.7734,2.1733 7.5866,0.88 15.2,1.8933 22.84,3.3333 l 0.7733,6.3467 c -7.0533,3.3867 -14.1333,6.3333 -21.2267,9.1467 -7.08,2.84 -14.1866,5.4666 -21.2933,7.9866 -7.1067,2.52 -14.2267,4.9067 -21.3467,7.1867 -3.56,1.1467 -7.1333,2.24 -10.6933,3.3467 -3.56,1.1333 -7.1067,2.2933 -10.6667,3.4 -14.2266,4.4533 -28.4933,8.4933 -42.7866,12.24 -3.5734,0.96 -7.16,1.84 -10.7334,2.7466 -3.5733,0.9334 -7.16,1.72 -10.72,2.7067 l -10.72,2.72 -10.7333,2.6267 c -14.32,3.4 -28.6933,6.3866 -43.1733,8.8133 -14.4267,2.7067 -28.96,4.84 -43.5734,6.64 l -10.9733,1.3067 -10.9867,1.24 -21.92,2.8533 c -7.2933,0.96 -14.6,1.9733 -21.8933,3.04 -7.28,1.08 -14.5733,2.1467 -21.8267,3.4133 l -43.48,7.8134 -10.88,1.9333 -10.8533,2.08 -21.7067,4.16 c -7.24,1.36 -14.5066,2.6667 -21.7466,4.08 l -21.68,4.3733 -21.72,4.28 c -1.8134,0.36 -3.6267,0.7334 -5.4267,1.12 l -5.4133,1.16 -10.8267,2.3067 -21.68,4.56 c -7.2267,1.5467 -14.4,3.24 -21.6267,4.8133 -7.2,1.6267 -14.44,3.1734 -21.64,4.84 l -21.5866,5.08 c -3.6,0.84 -7.2134,1.64 -10.8,2.5467 l -10.7734,2.6533 c -7.1866,1.76 -14.3866,3.4667 -21.5466,5.3467 -7.1734,1.8267 -14.3734,3.6 -21.5067,5.5333 -7.1467,1.9067 -14.32,3.84 -21.4,5.8267 l -2.3067,-5.96"
           style="fill:#231f20;fill-opacity:1;fill-rule:nonzero;stroke:none;stroke-width:0.133333" />
        <path
           id="path571"
           d="m 50725,13247.7 c 656.5,139.1 761.7,-712.7 105.7,-2010.7 -656,-1298 823,-1436.2 823,-1436.2 0,0 -1390,-1628.6 -4291.4,-649.7 -2901.5,978.8 -3567.8,1116.7 -3567.8,1116.7 l 493.5,880.5 c 0,0 1520,637.9 3195.9,553.7 1675.8,-84.2 3241.1,1545.7 3241.1,1545.7"
           style="fill:url(#linearGradient572);fill-opacity:1;fill-rule:nonzero;stroke:none"
           transform="matrix(0.13333333,0,0,-0.13333333,0,3135.68)"
           clip-path="url(#clipPath572)" />
        <path
           id="path573"
           d="m 43893.5,10864.7 c 0,0 2026.1,1329.1 3860.1,1042.1 1833.9,-287.1 1912.2,1241.3 3025.1,1361.6 185.1,20 289.9,-62.3 289.9,-62.3 0,0 -274.4,99.3 -558.5,-257.2 -253.1,-317.7 -456.8,-1238 -218.8,-1677.5 0,0 -711.4,-684.4 -2836.9,5.8 -566.5,184 -1013.5,304.9 -1438.9,250.5 -1158.1,-148 -1829.1,-1012.9 -1829.1,-1012.9 l -292.9,349.9"
           style="fill:url(#linearGradient574);fill-opacity:1;fill-rule:nonzero;stroke:none"
           transform="matrix(0.13333333,0,0,-0.13333333,0,3135.68)"
           clip-path="url(#clipPath574)" />
        <path
           id="path193-1-6"
           d="m 5856.4112,2503.587 c -127.498,0.6789 -243.8776,-61.5949 -302.7343,-137.9794 -95.494,-123.9325 -64.6496,-232.7726 -24.1892,-315.3345 24.8158,-50.6383 87.9261,-104.5831 206.7235,-151.8194 33.0267,-9.12 68.16,-14.0133 104.5067,-14.0133 5.9733,0 11.96,0.1333 18.0133,0.4 192.0344,9.5304 422.7798,64.982 414.92,306.6533 -8.8418,271.8658 -256.859,311.2394 -417.24,312.0933 z"
           style="fill:url(#radialGradient198-1-5);fill-opacity:1;fill-rule:nonzero;stroke:none;stroke-width:0.133333"
           clip-path="none"
           sodipodi:nodetypes="ssscscss" />
        <path
           id="path575"
           d="m 46151.1,10372.6 c -587.3,60.4 -1259.6,-148.8 -1336.3,-484.4 -76.5,-335.6 438.4,-815.8 993.9,-1016.2 682.6,-246.3 1374.2,-48.6 1483.9,431.9 109.7,480.5 -419.4,994.4 -1141.5,1068.7"
           style="fill:url(#radialGradient578);fill-opacity:1;fill-rule:nonzero;stroke:none"
           transform="matrix(0.13333333,0,0,-0.13333333,0,3135.68)"
           clip-path="url(#clipPath578)" />
        <path
           id="path579"
           d="m 45384.7,11077.2 c -454.9,-359 -811.4,-911.8 -668.3,-1133.6 143.2,-221.8 793.8,-125 1308.3,141.5 632.5,327.5 1032.5,845 827.6,1162.6 -204.9,317.7 -908.6,270.7 -1467.6,-170.5"
           style="fill:url(#radialGradient582);fill-opacity:1;fill-rule:nonzero;stroke:none"
           transform="matrix(0.13333333,0,0,-0.13333333,0,3135.68)"
           clip-path="url(#clipPath582)" />
        <path
           id="path583"
           d="m 5974.7732,1820.2267 c 0.1467,-1 0.32,-2 0.5333,-2.9733 10.2267,-44.7467 99.8667,-72.64 178.1733,-64.5867 11.7734,1.2 23.1734,3.3067 34.0667,6.16 -15.0933,11.5867 -32.2533,22.4933 -50.92,32.1733 -58.4933,30.2934 -130.1733,44.1334 -161.8533,29.2267"
           style="fill:#76d2f6;fill-opacity:1;fill-rule:nonzero;stroke:none;stroke-width:0.133333" />
        <path
           id="path584"
           d="m 5977.3999,766.44006 c 6.12,-39.53333 17.0133,-78.14667 32.3866,-113.45333 7.6133,-17.68 16.4133,-34.56 26.2533,-50.33333 9.7334,-15.82667 20.56,-30.58667 32.6667,-43.73334 12.0133,-13.28 26.5867,-23.69333 41.08,-32.82666 7.52,-4.28 14.3333,-9.17333 21.4933,-13.64 6.8,-4.97333 13.9734,-9.44 20.6934,-14.92 3.4933,-2.54667 7.12,-4.96 10.64,-7.64 l 5.3066,-4.06667 5.5734,-3.77333 c 3.7333,-2.56 7.44,-5.28 11.16,-8.18667 3.8933,-2.49333 7.7866,-5.18666 11.72,-8 7.7333,-5.97333 16.1733,-10.94666 24.52,-17.4 8.44,-6.22666 17.32,-12.05333 26.2933,-20.13333 l -1.12,-8.49333 c -5.4533,-2.32 -10.96,-4.25334 -16.5067,-5.81334 -5.56,-1.53333 -11.2,-3.21333 -16.8,-3.92 -11.2,-1.50666 -22.6933,-2.93333 -34.0266,-2.22666 -5.6934,0.22666 -11.4267,0.50666 -17.1334,1.08 -5.6666,0.81333 -11.32,1.81333 -16.9733,2.97333 -2.84,0.54667 -5.6667,1.17333 -8.4933,1.81333 l -8.2934,2.53334 c -5.52,1.8 -11.08,3.6 -16.5066,5.72 -21.6267,8.92 -41.3067,22.73333 -57.2667,40.01333 -15.7867,17.53333 -28.52,37.06667 -40.5733,56.16 -24.2667,38.36 -38.1733,80.94666 -44.96,123.09333 -6.3867,42.33333 -7.16,84.44 0.2933,125.58666 l 8.5734,-0.41333"
           style="fill:#231f20;fill-opacity:1;fill-rule:nonzero;stroke:none;stroke-width:0.133333" />
        <path
           id="path585"
           d="m 5683.9332,789.70673 c -14.32,-37.36 -33.1067,-72.8 -55.56,-104.06667 -11.1733,-15.68 -23.32,-30.32 -36.2667,-43.65333 -12.84,-13.42667 -26.5333,-25.57333 -41.1333,-35.86667 -14.5333,-10.45333 -30.9733,-17.54666 -47.08,-23.42666 -8.24,-2.58667 -15.9333,-5.93334 -23.88,-8.78667 -7.68,-3.44 -15.64,-6.28 -23.36,-10.21333 -3.9467,-1.76 -8,-3.36 -12.0133,-5.22667 l -6.04,-2.85333 -6.24,-2.52 c -4.1867,-1.72 -8.3867,-3.6 -12.6267,-5.65334 -4.3333,-1.61333 -8.72,-3.42666 -13.1467,-5.33333 -8.8133,-4.22667 -18.1066,-7.29333 -27.6266,-11.85333 -9.5734,-4.30667 -19.48,-8.13333 -29.9467,-14.12 l -0.6933,-8.56 c 4.8266,-3.41333 9.8133,-6.45333 14.9066,-9.16 5.1067,-2.66667 10.2667,-5.50667 15.5867,-7.37333 10.6267,-3.84 21.56,-7.64 32.7867,-9.34667 5.6133,-0.98667 11.28,-1.92 16.9733,-2.56 5.7067,-0.38667 11.4533,-0.61333 17.2267,-0.68 2.88,-0.0533 5.7733,-0.04 8.6666,-0.0133 l 8.6534,0.73333 c 5.7733,0.58667 11.5733,1.17333 17.3466,2.10667 23,4.16 45.16,13.50666 64.4,27.02666 19.12,13.82667 35.6934,30.22667 51.4934,46.34667 31.7866,32.38666 54.36,71.08 69.8666,110.84 15.16,40.02666 24.7867,81.02666 26.16,122.81333 l -8.4533,1.4"
           style="fill:#231f20;fill-opacity:1;fill-rule:nonzero;stroke:none;stroke-width:0.133333" />
        <g
           id="g126"
           transform="translate(4095.9105,711.91055)">
          <path
             id="path22"
             d="m 6480.44,5797.2 c -83.55,0 -156.92,-55.5 -180.47,-135.7 0,0 -2.68,-9.7 -3.4,-12.2 -24.99,36.7 -62.08,63.4 -104.78,75.5 -16.44,4.6 -33.43,7 -50.51,7.1 -84.89,0.4 -279.63,-58.4 -302.72,-140.1 0,0 -13.92,-159.1 -9.82,-375.5 4.02,-211.9 -21.05,-455.5 29.77,-681.8 81.51,-363.1 156.28,-847.2 89.94,-1094.9 -224.56,-838 23.04,-1431.6 23.04,-1431.6 41.2,-95.9 152.33,-140.3 248.23,-99.1 31,13.4 57.88,34.7 77.83,62 26.52,-60.1 82.29,-102.1 147.32,-110.9 63.33,-8.7 126.73,15.3 168.52,63.7 29.21,-15.9 62.09,-23.8 95.33,-22.9 16.12,-9.5 33.56,-16.4 51.72,-20.7 101.56,-24.1 203.4,38.7 227.44,140.3 0,0 12.45,54.2 49.77,285.5 34.25,-189.3 79.37,-297.9 79.37,-297.9 41.18,-95.9 152.31,-140.2 248.2,-99.1 31.09,13.4 58.01,34.8 77.97,62.2 25.66,-58.1 79.72,-101.9 147.19,-111.1 65.71,-9 128.04,17.1 168.44,63.7 40.88,-22.3 88.55,-28.7 133.87,-18 21.27,5.1 41.5,13.7 59.8,25.7 43.21,-45.6 106.28,-66.8 168.26,-56.4 22.7,3.7 44.51,11.7 64.38,23.3 88.83,-20.1 179.34,26 215.29,109.7 0,0 33.96,81.6 65.31,226.6 2.52,-17.7 4.7,-33.9 6.49,-48.6 13.79,-112.7 10.06,-113.2 10.06,-113.2 -14.12,-103.4 58.28,-198.7 161.69,-212.8 103.41,-14.1 198.68,58.3 212.78,161.7 0,0 6.88,77.3 -9.38,210.2 -16.26,133 -53.06,346.2 -135.6,687.1 -70.41,290.8 -17.32,526 40.39,758.6 28.85,116.2 60.05,230.5 69.72,353.5 9.68,123 -7.43,261.9 -83.47,385.2 -44.04,71.3 99.87,316.8 137.44,566.4 37.56,249.6 10.05,546.4 10.05,546.4 29.4,100.1 -98.36,163.2 -198.51,192.6 -17.57,5.1 -35.79,7.7 -54.1,7.6 -83.53,-0.4 -156.91,-55.6 -180.45,-135.7 0,0 -4.32,-15.4 -8.32,-29.8 -23.46,44.1 -63.37,77 -111.03,91.8 -21.46,22.8 -48.26,40 -77.99,49.9 -19.7,6.5 -40.34,9.8 -61.1,9.7 -55.9,-0.4 -108.76,-25.6 -144.35,-68.7 -22.88,30.6 -54.49,53.5 -90.67,65.8 -19.66,6.6 -40.29,10 -61.05,9.9 -62.87,-0.1 -121.54,-31.5 -156.54,-83.7 -23.61,38.8 -60.98,69.4 -107.99,83.2 -17.57,5.1 -35.79,7.7 -54.1,7.6 -83.54,-0.4 -156.92,-55.6 -180.45,-135.7 0,0 -2.68,-9.7 -3.4,-12.2 -24.99,36.7 -62.09,63.4 -104.79,75.5 -16.43,4.6 -33.42,7 -50.5,7.1 v 0 c -51.58,0.2 -101,-20.7 -136.82,-57.8 -28.56,62.9 -89.13,105.2 -157.97,110.3 -20.7,1.5 -41.51,-0.3 -61.6,-5.6 -12.71,-3.3 -25.03,-7.9 -36.78,-13.8 -10.65,6.2 -21.86,11.2 -33.49,15.2 -19.67,6.6 -40.3,10 -61.06,9.9 -62.77,-0.1 -121.37,-31.4 -156.38,-83.5 -24.48,40.1 -63.03,69.7 -108.15,83 -17.57,5.1 10.46,75.5 -7.85,75.5 h -0.02"
             style="fill:#9ad4fd;fill-opacity:1;fill-rule:nonzero;stroke:none"
             transform="matrix(0.13333333,0,0,-0.13333333,0,2133.3333)" />
          <path
             id="path23"
             d="m 6480.44,5797.2 c -83.55,0 -156.92,-55.5 -180.47,-135.7 0,0 -2.68,-9.7 -3.4,-12.2 -24.99,36.7 -62.08,63.4 -104.78,75.5 -16.44,4.6 -33.43,7 -50.51,7.1 -84.89,0.4 -279.63,-58.4 -302.72,-140.1 0,0 -1.3,-16 -2.96,-42.2 154.01,-64.5 392.94,-69.3 489.25,-236 130,-225 473.75,-82.9 578.75,-287.9 105,-205 445,155 505,30 60,-125 500,180 615,-30 115,-210 370,-130 515,-305 114.67,-138.4 88.69,-168.2 247.03,-61.8 33.6,96.4 72.98,209.2 90.22,323.8 37.57,249.6 10.05,546.4 10.05,546.4 29.41,100.1 -98.36,163.2 -198.51,192.6 -17.57,5.1 -35.79,7.7 -54.1,7.6 -83.53,-0.4 -156.9,-55.6 -180.45,-135.7 0,0 -4.32,-15.4 -8.32,-29.8 -23.45,44.1 -63.37,77 -111.03,91.8 -21.46,22.8 -48.26,40 -77.99,49.9 -19.7,6.5 -40.33,9.8 -61.1,9.7 -55.9,-0.4 -108.76,-25.6 -144.35,-68.7 -22.88,30.6 -54.49,53.5 -90.67,65.8 -19.65,6.6 -40.29,10 -61.05,9.9 -62.86,-0.1 -121.54,-31.5 -156.54,-83.7 -23.61,38.8 -60.98,69.4 -107.99,83.2 -17.57,5.1 -35.79,7.7 -54.1,7.6 -83.54,-0.4 -156.91,-55.6 -180.45,-135.7 0,0 -2.68,-9.7 -3.4,-12.2 -24.99,36.7 -62.08,63.4 -104.79,75.4 -16.43,4.7 -33.42,7.1 -50.5,7.2 -51.58,0.2 -101,-20.7 -136.82,-57.8 -28.56,62.9 -89.12,105.2 -157.97,110.3 -20.69,1.5 -41.51,-0.3 -61.6,-5.6 -12.71,-3.3 -25.03,-7.9 -36.78,-13.8 -10.64,6.2 -21.86,11.2 -33.49,15.2 -19.67,6.6 -40.3,10 -61.06,9.9 -62.77,-0.1 -121.37,-31.4 -156.38,-83.5 -24.48,40.1 -63.03,69.7 -108.15,83 -17.57,5.1 10.46,75.5 -7.85,75.5 h -0.02"
             style="fill:#6ebbfd;fill-opacity:1;fill-rule:nonzero;stroke:none"
             transform="matrix(0.13333333,0,0,-0.13333333,0,2133.3333)" />
          <path
             id="path24"
             d="m 7349.23,13294.3 c -104.38,0 -189,-84.6 -189.01,-189 l -1.09,-6595.14 c 0,-104.38 84.58,-189 188.95,-189.01 104.37,0 188.99,84.57 189,188.94 l 1.09,6595.21 c 0,104.3 -84.57,188.9 -188.94,189 v 0"
             style="fill:#aebaba;fill-opacity:1;fill-rule:nonzero;stroke:none"
             transform="matrix(0.13333333,0,0,-0.13333333,0,2133.3333)" />
          <path
             id="path25"
             d="m 7349.23,13294.3 c -104.38,0 -189,-84.6 -189.01,-189 l -0.09,-401.9 c 50.06,-31.7 111.82,-60 186.54,-77.9 78.76,-18.8 141.86,-69 191.37,-129 l 0.09,608.8 c 0,104.3 -84.57,188.9 -188.94,189 h 0.04"
             style="fill:#8b9494;fill-opacity:1;fill-rule:nonzero;stroke:none"
             transform="matrix(0.13333333,0,0,-0.13333333,0,2133.3333)" />
          <path
             id="path26-8"
             d="m 7537.72,10916.5 c -69.25,-542.9 -143.35,-1234.99 -148.61,-1749.48 -10,-980 102.44,-2049.61 30,-2300 -23.95,-82.79 -129.54,-123.81 -259.94,-141.81 v -215.06 c 0,-104.37 84.58,-188.99 188.95,-189.01 104.36,0 188.99,84.58 189,188.95 l 0.6,4406.41"
             style="fill:#8b9494;fill-opacity:1;fill-rule:nonzero;stroke:none"
             transform="matrix(0.13333333,0,0,-0.13333333,0,2133.3333)" />
          <path
             id="path27"
             d="m 7346.67,13716 c -156.55,-0.3 -283.2,-7.5 -282.87,-164.1 l 1.37,-665.2 c 0.33,-156.6 127.5,-141.8 284.04,-141.5 156.56,0.3 283.21,-13.9 282.89,142.6 l -1.39,665.3 c -0.31,156.6 -127.48,163.2 -284.04,162.9"
             style="fill:#3778d3;fill-opacity:1;fill-rule:nonzero;stroke:none"
             transform="matrix(0.13333333,0,0,-0.13333333,0,2133.3333)" />
          <path
             id="path28"
             d="m 7346.67,13716 c -133.48,-0.3 -245.15,-5.6 -274.98,-104.2 29.2,-41.2 95.77,-82.5 247.42,-69.1 282.5,25 242.5,-182.5 252.5,-415 7.19,-166.9 -127.43,-292.6 -179.84,-382.6 136.16,-0.7 240.62,0.8 240.33,142.8 l -1.39,665.2 c -0.31,156.6 -127.48,163.2 -284.04,162.9 v 0"
             style="fill:#3069b9;fill-opacity:1;fill-rule:nonzero;stroke:none"
             transform="matrix(0.13333333,0,0,-0.13333333,0,2133.3333)" />
          <path
             id="path29"
             d="m 7279.58,14170.4 h 136.74 c 37.96,0 66.74,-28.7 66.74,-66.7 v -297.6 c 0,-37.9 -28.78,-66.7 -66.74,-66.7 h -136.74 c -37.96,0 -66.74,28.8 -66.74,66.7 v 297.6 c 0,38 28.78,66.7 66.74,66.7 z m 0,113.4 c -98.81,0 -180.12,-81.3 -180.12,-180.1 v -297.6 c 0,-98.8 81.31,-180.1 180.12,-180.1 h 136.74 c 98.82,0 180.14,81.3 180.14,180.1 v 297.6 c 0,98.8 -81.32,180.1 -180.14,180.1 h -136.74"
             style="fill:#f2d457;fill-opacity:1;fill-rule:nonzero;stroke:none"
             transform="matrix(0.13333333,0,0,-0.13333333,0,2133.3333)" />
          <path
             id="path30"
             d="m 6297.55,1970.8 c 0,0 -198.95,744.9 -103.95,1074.9 95,330 10,835 5,1140 -5,305 80,0 80,-260 0,-260 65,-500 15,-850 -50,-350 -5,-550 10,-690 15,-140 -6.05,-414.9 -6.05,-414.9"
             style="fill:#6ebbfd;fill-opacity:1;fill-rule:nonzero;stroke:none"
             transform="matrix(0.13333333,0,0,-0.13333333,0,2133.3333)" />
          <path
             id="path31-5"
             d="m 6613.39,1923.7 c 0,0 -44.79,622 -14.79,912 30,290 -40,1395 10,1760 50,365 -75,-225 -75,-405 0,-180 -15,-515 -15,-775 0,-260 -25,-805 -15,-1000 10,-195 109.79,-492 109.79,-492"
             style="fill:#6ebbfd;fill-opacity:1;fill-rule:nonzero;stroke:none"
             transform="matrix(0.13333333,0,0,-0.13333333,0,2133.3333)" />
          <path
             id="path32-7"
             d="m 6296.57,5649.3 c -76.72,-75.7 -106.72,-875.7 -101.72,-1020.7 5,-145 70,215 70,340 0,125 68.28,329.3 50,505 l -18.28,175.7"
             style="fill:#6ebbfd;fill-opacity:1;fill-rule:nonzero;stroke:none"
             transform="matrix(0.13333333,0,0,-0.13333333,0,2133.3333)" />
          <path
             id="path33-4"
             d="m 7037.65,2305.9 c 0,0 -114.05,1419.8 -54.05,1109.8 60,-310 113.09,-734.7 54.05,-1109.8"
             style="fill:#6ebbfd;fill-opacity:1;fill-rule:nonzero;stroke:none"
             transform="matrix(0.13333333,0,0,-0.13333333,0,2133.3333)" />
          <path
             id="path34-1"
             d="m 6903.6,3610.7 c 15,90 -100,930 -30,1235 70,305 -170.13,629.4 30,695 200.14,65.5 -45,-40 -5,-220 40,-180 110,-340 25,-690 -85,-350 155,-1225 -20,-1020"
             style="fill:#6ebbfd;fill-opacity:1;fill-rule:nonzero;stroke:none"
             transform="matrix(0.13333333,0,0,-0.13333333,0,2133.3333)" />
          <path
             id="path35-8"
             d="m 7443.19,1971 c 0,0 -82.33,613.6 -46.98,988.4 35.36,374.8 -63.63,756.6 -88.39,1088.9 -24.74,332.4 99,-173.2 99,-441.9 0,-268.7 95.47,-519.7 38.89,-908.6 -56.57,-388.9 83.36,-583.7 -2.52,-726.8 v 0"
             style="fill:#6ebbfd;fill-opacity:1;fill-rule:nonzero;stroke:none"
             transform="matrix(0.13333333,0,0,-0.13333333,0,2133.3333)" />
          <path
             id="path36-5"
             d="m 7758.82,1923.7 c 0,0 -90.37,487.7 -47.94,1018 42.42,530.3 -84.85,869.8 -17.69,1089 67.18,219.2 63.65,-21.3 35.36,-219.2 -28.28,-198 60.11,-700.1 24.75,-1046.6 -35.35,-346.4 49.93,-660.6 5.52,-841.2"
             style="fill:#6ebbfd;fill-opacity:1;fill-rule:nonzero;stroke:none"
             transform="matrix(0.13333333,0,0,-0.13333333,0,2133.3333)" />
          <path
             id="path37-9"
             d="m 7952.49,1931.4 c 0,0 97.8,1052.7 58.91,1416.9 -38.9,364.2 120.2,-183.8 49.5,-526.8 -70.71,-342.9 23.61,-634.7 -108.41,-890.1"
             style="fill:#6ebbfd;fill-opacity:1;fill-rule:nonzero;stroke:none"
             transform="matrix(0.13333333,0,0,-0.13333333,0,2133.3333)" />
          <path
             id="path38-7"
             d="m 8185.13,1898.3 c 0,0 169.22,1004.5 102.04,1428.8 -67.18,424.3 -176.78,866.2 -183.85,1375.3 -7.07,509.1 -53.03,1004.1 -70.71,813.2 -17.68,-190.9 -7.07,-541 -3.54,-760.2 3.54,-219.2 28.29,-576.2 84.86,-979.3 56.57,-403.1 148.49,-572.8 106.06,-961.7 -42.42,-388.9 -34.86,-916.1 -34.86,-916.1 v 0"
             style="fill:#6ebbfd;fill-opacity:1;fill-rule:nonzero;stroke:none"
             transform="matrix(0.13333333,0,0,-0.13333333,0,2133.3333)" />
          <path
             id="path39-5"
             d="m 7395.85,5581.4 c 0.36,-341.6 -59.74,-780 -42.06,-949.7 17.67,-169.7 38.89,208.6 60.1,381.8 21.22,173.3 81.68,457.5 31.82,512.7 -49.86,55.2 -49.86,55.2 -49.86,55.2"
             style="fill:#6ebbfd;fill-opacity:1;fill-rule:nonzero;stroke:none"
             transform="matrix(0.13333333,0,0,-0.13333333,0,2133.3333)" />
          <path
             id="path40-3"
             d="m 7671.98,4935.8 c -3.53,-21.3 -109.6,-367.7 -63.63,-502.1 45.96,-134.3 155.56,388.9 63.63,502.1"
             style="fill:#6ebbfd;fill-opacity:1;fill-rule:nonzero;stroke:none"
             transform="matrix(0.13333333,0,0,-0.13333333,0,2133.3333)" />
          <path
             id="path41"
             d="m 8465.73,2234.6 c 0,0 122.87,1006.1 27.87,1291.1 -95,285 105,655 110,845 5,190 -35,340 -40,600 -5,260 55,660 20,590 -35,-70 -115,-650 -60,-925 55,-275 -20,-490 -90,-690 -70,-200 30,-515 35,-640 5,-125 -19.41,-909.2 -2.87,-1071.1"
             style="fill:#6ebbfd;fill-opacity:1;fill-rule:nonzero;stroke:none"
             transform="matrix(0.13333333,0,0,-0.13333333,0,2133.3333)" />
          <path
             id="path42"
             d="m 8918.2,5515.6 c 0,-80 -3140.51,-86.2 -3140.51,0 0,105.9 148.74,301.9 308.24,230.6 214.53,112 910.13,274.96 1262.02,274.96 365.25,0 1016.43,-142.56 1231.04,-258.96 170.14,60.4 339.21,-145.9 339.21,-246.6 v 0"
             style="fill:#f2d457;fill-opacity:1;fill-rule:nonzero;stroke:none"
             transform="matrix(0.13333333,0,0,-0.13333333,0,2133.3333)" />
          <path
             id="path43"
             d="m 7398.76,6020.22 c -66.46,-38.52 -101.5,-77.82 -95.16,-109.52 20,-100 250,-100 565,-145 315,-45 575.92,-201.9 181.45,-119.2 -394.47,82.7 -946.31,-40.3 -1366.45,-60.8 -282.46,-13.8 -638.87,-6.7 -888,3.9 -11.49,-26.4 -17.91,-52.1 -17.91,-74 0,-86.2 3140.52,-80 3140.52,0 0,100.7 -169.08,307 -339.22,246.6 -205.01,111.2 -808.26,246.17 -1180.23,258.02"
             style="fill:#f2bc4f;fill-opacity:1;fill-rule:nonzero;stroke:none"
             transform="matrix(0.13333333,0,0,-0.13333333,0,2133.3333)" />
          <path
             id="path44"
             d="m 7346.67,6616.63 c -156.55,-0.33 -283.2,-7.51 -282.87,-164.06 l 1.37,-520.27 c 0.33,-156.6 127.5,-140.7 284.04,-140.4 156.56,0.3 283.21,-15 282.89,141.5 l -1.39,520.34 c -0.31,156.55 -127.48,163.21 -284.04,162.89"
             style="fill:#3778d3;fill-opacity:1;fill-rule:nonzero;stroke:none"
             transform="matrix(0.13333333,0,0,-0.13333333,0,2133.3333)" />
          <path
             id="path45-8"
             d="m 7246.61,6514.52 c 0,0 -95,-7.5 -116.25,-133.75 -21.25,-126.25 66.25,-168.75 128.75,-122.5 62.5,46.25 78.18,231.95 -12.5,256.25"
             style="fill:#3bb1e3;fill-opacity:1;fill-rule:nonzero;stroke:none"
             transform="matrix(0.13333333,0,0,-0.13333333,0,2133.3333)" />
          <path
             id="path46"
             d="m 7420.97,6533.82 c 157.32,-26.52 139.65,-61.88 143.18,-136.12 3.54,-74.24 26.51,-395.98 -21.21,-473.8 -47.73,-77.7 -284.61,-81.3 -367.7,-42.4 -83.08,38.9 -12.37,201.54 159.11,144.97 171.46,-56.57 201.52,102.53 182.08,196.23 -19.46,93.69 -240.42,311.12 -95.47,311.12 h 0.01"
             style="fill:#3069b9;fill-opacity:1;fill-rule:nonzero;stroke:none"
             transform="matrix(0.13333333,0,0,-0.13333333,0,2133.3333)" />
        </g>
        <path
           id="path594"
           d="m 5050.1199,1780.7467 c 22.6933,-8.92 51.7866,11.0133 64.9866,44.5467 13.1867,33.5333 5.48,67.96 -17.2133,76.88 -22.7067,8.9333 -51.8,-11.0134 -64.9867,-44.5467 -13.1866,-33.52 -5.48,-67.9467 17.2134,-76.88"
           style="fill:#231f20;fill-opacity:1;fill-rule:nonzero;stroke:none;stroke-width:0.133333" />
        <path
           id="path190-9-8"
           d="m 5399.2114,2606.8135 c -25.7506,0 -40.5733,-29.4533 -25.056,-50 20.9054,-27.6933 56.092,-51.7067 95.9747,-51.7067 39.8813,0 75.068,24.0134 95.9747,51.7067 15.52,20.5467 0.6933,50 -25.0534,50 h -141.84"
           style="fill:#231f20;fill-opacity:1;fill-rule:nonzero;stroke:none;stroke-width:0.133333" />
        <path
           id="path601"
           d="m 45455.2,10065.9 c 72.6,-773.3 -555.6,-1194.2 -1404.3,-1273.9 -848.6,-79.4 -1596.7,212.5 -1669.1,985.8 -72.6,773.4 556.7,1464.7 1405.3,1544.3 848.7,79.6 1595.5,-482.5 1668.1,-1256.2"
           style="fill:url(#radialGradient603);fill-opacity:1;fill-rule:nonzero;stroke:none"
           transform="matrix(0.13333333,0,0,-0.13333333,0,3135.68)"
           clip-path="url(#clipPath603)" />
        <path
           id="path191-4-8"
           d="m 5470.1301,2505.2802 c -18.7547,0 -37.264,5.1866 -55.0173,15.44 -15.6494,9.04 -29.7654,21.5466 -40.82,36.2 -7.2187,9.5466 -8.3294,21.68 -2.9747,32.44 5.312,10.6666 16,17.28 27.8933,17.28 h 141.84 c 11.8934,0 22.5734,-6.6134 27.8934,-17.28 5.3466,-10.76 4.24,-22.8934 -2.9734,-32.44 -11.0666,-14.6534 -25.1733,-27.16 -40.8266,-36.2 -17.7467,-10.2534 -36.2614,-15.44 -55.0147,-15.44 z m 70.9213,101.7066 h -141.84 c -12.0253,0 -22.832,-6.6933 -28.2026,-17.48 -5.4147,-10.8666 -4.2907,-23.1333 3.008,-32.8 11.0826,-14.68 25.2333,-27.2266 40.9226,-36.2933 17.8067,-10.2667 36.3747,-15.48 55.1907,-15.48 18.8147,0 37.388,5.2133 55.188,15.48 15.6933,9.0667 29.84,21.6133 40.92,36.2933 7.3067,9.6667 8.4267,21.9334 3.0133,32.8 -5.3733,10.7867 -16.1733,17.48 -28.2,17.48"
           style="fill:#231f20;fill-opacity:1;fill-rule:nonzero;stroke:none;stroke-width:0.133333" />
        <path
           id="path604"
           d="m 5972.1065,1669.3334 c 11.6,-1.8534 23.0267,-2.5467 34.4533,-2.8534 11.4,-0.2533 22.7734,-0.08 34.0667,0.6267 22.6267,1.2933 45.04,4.3467 67.2667,8.9333 22.24,4.52 44.2666,10.8667 65.5333,20.3734 10.6533,4.68 21.08,10.2266 31.4267,16.28 10.3066,6.1733 20.5466,12.84 30.5866,20.9066 5.0134,4.04 10.0667,8.3067 14.9067,13.44 4.8133,5.12 9.6,10.8934 13.5733,18.2667 0.9734,1.9067 1.96,3.6933 2.76,5.8133 l 1.2134,3.08 1,3.3067 c 1.28,4.4 1.8133,8.6933 1.9866,13.2533 0.1334,4.52 -0.3733,9.0667 -1.32,13.4 -1.04,4.2667 -2.4266,8.4134 -4.2666,12.0667 -3.5734,7.4533 -8.2667,13.3467 -13.1067,18.3867 -4.8533,5.04 -10.0667,9.0933 -15.2533,12.72 -10.4534,7.1733 -21.12,12.5733 -31.84,17.2533 -21.4534,9.32 -43.28,15.48 -65.0934,20.7733 -10.96,2.5334 -21.92,4.7334 -32.92,6.6934 -11.0133,1.88 -22.0133,3.4533 -33.1333,4.72 l -1.1867,-5.5734 c 10.3867,-3.4933 20.72,-7.4133 30.9067,-11.4133 10.2267,-3.9467 20.3467,-8.1333 30.28,-12.5733 19.92,-8.68 39.2933,-18.48 56.88,-29.6534 8.7333,-5.5866 16.9733,-11.6666 23.7867,-18.2 6.7066,-6.48 12.0533,-13.6266 13.5333,-19.1066 0.8133,-2.7467 0.7067,-4.8 0.2533,-6.72 -0.12,-0.4934 -0.2933,-0.9867 -0.4533,-1.48 -0.24,-0.5067 -0.3733,-1.0934 -0.64,-1.44 -0.12,-0.2 -0.2,-0.4 -0.2933,-0.6134 -0.16,-0.2266 -0.3067,-0.4666 -0.4534,-0.6933 -0.2,-0.4533 -0.7066,-1 -1.0266,-1.52 -3.1734,-4.4533 -10.0667,-10.0267 -17.96,-14.5867 -4.0134,-2.2666 -8.2667,-4.4533 -12.7067,-6.4933 -4.48,-2 -9.08,-3.8933 -13.8,-5.6933 -9.4267,-3.6267 -19.2267,-6.8534 -29.0667,-10.2267 -19.7333,-6.6133 -39.6133,-13.9467 -59.6266,-21.8267 -20.0267,-7.8133 -40.2667,-15.7733 -60.52,-24.5733 -20.24,-8.8533 -40.5867,-18.0267 -60.7467,-29.44 l 1,-5.6133"
           style="fill:#231f20;fill-opacity:1;fill-rule:nonzero;stroke:none;stroke-width:0.133333" />
        <path
           id="path605"
           d="m 42522.8,11417.2 c 0,453.1 569.4,820.4 1271.8,820.4 702.4,0 1271.8,-367.3 1271.8,-820.4 0,-453.1 -569.4,-820.4 -1271.8,-820.4 -702.4,0 -1271.8,367.3 -1271.8,820.4"
           style="fill:url(#linearGradient606);fill-opacity:1;fill-rule:nonzero;stroke:none"
           transform="matrix(0.13333333,0,0,-0.13333333,0,3135.68)"
           clip-path="url(#clipPath606)" />
        <path
           id="path211-1-9"
           d="m 5834.419,1657.16 c -298.2653,0 -500.9053,-124.28 -500.9053,-422.56 0,-8.5466 0.1666,-17.0533 0.4986,-25.52 v 0 c 0.6707,-17.16 2.0174,-34.0933 4.0174,-50.7866 4.448,-37.12 12.136,-73.0533 22.8213,-107.3467 28.7667,-92.34662 79.3027,-172.97328 147.08,-234.07995 v -0.0133 c 42.092,-37.94667 90.804,-68.34666 145.1107,-89.36 10.2533,-3.97333 20.7066,-7.6 31.36,-10.89333 46.5466,-14.36 96.76,-22.06667 150.0133,-22.06667 371.2667,0 540.0666,241.82666 540.0666,540.06655 0,298.28 -241.8133,422.56 -540.0666,422.56"
           style="fill:url(#radialGradient214-7-6);fill-opacity:1;fill-rule:nonzero;stroke:none;stroke-width:0.133333"
           clip-path="none"
           sodipodi:nodetypes="csssccccccssc" />
        <path
           id="path607"
           d="m 43735.3,10920.6 c 0,0 -942.4,108.5 -1046.3,-764.5 0,0 896,-166 1046.3,764.5"
           style="fill:url(#linearGradient608);fill-opacity:1;fill-rule:nonzero;stroke:none"
           transform="matrix(0.13333333,0,0,-0.13333333,0,3135.68)"
           clip-path="url(#clipPath608)" />
        <path
           id="path609"
           d="m 43758.8,10920.6 c 0,0 942.4,108.5 1046.2,-764.5 0,0 -895.9,-166 -1046.2,764.5"
           style="fill:url(#linearGradient610);fill-opacity:1;fill-rule:nonzero;stroke:none"
           transform="matrix(0.13333333,0,0,-0.13333333,0,3135.68)"
           clip-path="url(#clipPath610)" />
        <path
           id="path611"
           d="m 43758.8,10599.3 c -157,0 -284.3,127.2 -284.3,284.3 0,157 127.3,284.3 284.3,284.3 157,0 284.3,-127.3 284.3,-284.3 0,-157.1 -127.3,-284.3 -284.3,-284.3"
           style="fill:url(#radialGradient612);fill-opacity:1;fill-rule:nonzero;stroke:none"
           transform="matrix(0.13333333,0,0,-0.13333333,0,3135.68)"
           clip-path="url(#clipPath612)" />
        <path
           style="fill:#ffffff;fill-opacity:0.356437;stroke:none;paint-order:stroke fill markers"
           d="m 5906.6394,771.20588 c -5.6657,-32.73582 -100.3808,-31.51026 -150.4238,-23.17297 -102.9753,17.15595 -213.7637,62.66886 -277.3542,145.46069 -28.2368,36.76298 -77.5676,106.16735 -83.1108,161.4782 -2.3329,23.278 -21.5278,61.4963 0.194,70.1838 35.4567,14.1808 69.9709,-130.73855 124.0236,-179.3218 72.8849,-65.5098 167.1513,-104.3475 258.2025,-140.58861 41.16,-16.38289 132.6247,-10.02679 128.4687,-34.03931 z"
           id="path2-2-5"
           sodipodi:nodetypes="ssssssss" />
        <path
           id="path617"
           d="m 5804.0399,1402.0267 c -55.9067,0 -107.4934,-36.7333 -123.7334,-93.0667 -2.7066,-9.3733 2.6934,-19.1466 12.0534,-21.84 9.3733,-2.7333 19.1466,2.6934 21.84,12.0534 14.28,49.5066 66.16,78.1733 115.68,63.8933 31.9466,-9.2133 56.7866,-35 64.8266,-67.32 2.3467,-9.4533 11.9067,-15.2267 21.3734,-12.8533 9.4533,2.3466 15.2133,11.92 12.8666,21.3866 -11.08,44.48 -45.2933,80 -89.2933,92.6934 -11.8667,3.4266 -23.84,5.0533 -35.6133,5.0533"
           style="fill:#231f20;fill-opacity:1;fill-rule:nonzero;stroke:none;stroke-width:0.133333" />
        <path
           id="path220-7-4"
           d="m 5492.6501,2171.9869 c 4.8581,-66.6386 32.7856,-116.8794 55.4653,-147.4 8.1867,4.0266 15.1328,9.9623 49.658,23.1294 61.7321,18.8788 100.2086,23.1772 138.5686,24.8706 7.1467,0.32 14.2667,0.48 21.3467,0.48 131.6133,0 251.6933,-54.08 338.0933,-141.92 23.8667,9.6133 46.3334,21.0933 66.7334,34.7466 -42.1334,169.96 -211.4671,292.1267 -399.48,291.7334 -115.1052,-0.2408 -204.8763,-39.7554 -270.3853,-85.64 z"
           style="fill:url(#linearGradient6);fill-opacity:1;fill-rule:nonzero;stroke:none;stroke-width:0.133333"
           clip-path="none"
           sodipodi:nodetypes="ccccsccsc" />
        <path
           id="path651"
           d="m 6030.9998,1838.0134 c -18.56,15.8266 -14.6266,50.88 8.76,78.2933 23.4,27.4 57.4,36.7867 75.9467,20.9467 18.5467,-15.8267 14.6267,-50.88 -8.76,-78.2934 -23.4,-27.4 -57.4,-36.7866 -75.9467,-20.9466"
           style="fill:#231f20;fill-opacity:1;fill-rule:nonzero;stroke:none;stroke-width:0.133333" />
        <path
           id="path225-8-3"
           d="m 5496.0581,2241.5735 c 298.1302,192.498 501.9308,115.9636 631.2617,-52.1069 40.7378,-52.9403 68.1481,-104.7549 77.1049,-188.9597 16.4134,16.6133 30.3867,35.4933 41.3334,56.9466 6.1141,127.7826 -30.0892,300.1652 -146.5264,375.7435 -251.8387,135.028 -526.8417,77.2368 -603.1736,-191.6235 z"
           style="fill:url(#linearGradient7);fill-opacity:1;fill-rule:nonzero;stroke:none;stroke-width:0.133333"
           clip-path="none"
           sodipodi:nodetypes="csccsc" />
        <path
           id="path247-4-1"
           d="m 6332.5181,2606.8135 c 25.7466,0 40.5733,-29.4533 25.0533,-50 -20.9067,-27.6933 -56.0933,-51.7067 -95.9733,-51.7067 -39.88,0 -75.0667,24.0134 -95.9733,51.7067 -15.52,20.5467 -0.6934,50 25.0533,50 h 141.84"
           style="fill:#231f20;fill-opacity:1;fill-rule:nonzero;stroke:none;stroke-width:0.133333" />
        <path
           id="path248-5-4"
           d="m 6261.5981,2505.2802 c -18.76,0 -37.2667,5.1866 -55.0134,15.44 -15.6533,9.04 -29.7733,21.5466 -40.8266,36.2 -7.2133,9.56 -8.32,21.68 -2.9733,32.44 5.32,10.6666 15.9999,17.28 27.8933,17.28 h 141.84 c 11.8933,0 22.5733,-6.6267 27.8933,-17.28 5.3467,-10.76 4.24,-22.8934 -2.9733,-32.44 -11.0534,-14.6534 -25.1734,-27.16 -40.8267,-36.2 -17.7467,-10.2534 -36.2667,-15.44 -55.0133,-15.44 z m 70.92,101.7066 h -141.84 c -12.0267,0 -22.8267,-6.6933 -28.2,-17.48 -5.4133,-10.8666 -4.2933,-23.1333 3,-32.8 11.0933,-14.68 25.24,-27.2266 40.9333,-36.2933 17.8,-10.2667 36.3733,-15.48 55.1867,-15.48 18.8133,0 37.3866,5.2133 55.1866,15.48 15.6934,9.0667 29.84,21.6133 40.9334,36.2933 7.2933,9.6667 8.4133,21.9334 3,32.8 -5.3734,10.7867 -16.1734,17.48 -28.2,17.48"
           style="fill:#231f20;fill-opacity:1;fill-rule:nonzero;stroke:none;stroke-width:0.133333" />
        <path
           style="fill:#ffffff;fill-opacity:0.465254;stroke:none;paint-order:stroke fill markers"
           d="m 5646.2802,1997.1608 c 36.1113,15.548 -3.2803,78.6442 -7.9804,117.6785 -8.1664,67.8211 -11.9188,130.3178 41.7451,233.8032 13.9906,26.9795 60.3777,65.0473 36.3257,83.625 -38.5054,29.7415 -90.5422,-47.9407 -114.8396,-90.0935 -43.2399,-75.0155 -62.107,-174.5551 -36.3042,-257.2063 11.8703,-38.0228 44.4678,-103.5591 81.0534,-87.8069 z"
           id="path1-0-9"
           sodipodi:nodetypes="sssssss" />
        <path
           id="path652"
           d="m 5883.3865,1043.5734 c 5.6,119.0666 71.5334,209.16 147.6267,209.16 76.12,0 142.0533,-90.0934 147.6533,-209.16 6.0533,-128.84001 -59.8267,-241.36001 -147.6533,-241.36001 -87.8133,0 -153.6933,112.52 -147.6267,241.36001"
           style="fill:#ffffff;fill-opacity:1;fill-rule:nonzero;stroke:none;stroke-width:0.133333" />
        <path
           id="path653"
           d="m 5904.9465,1007.0401 c 0,85.3333 44.4267,154.4933 99.2,154.4933 54.7733,0 99.1867,-69.16 99.1867,-154.4933 0,-85.32004 -44.4134,-154.50671 -99.1867,-154.50671 -54.7733,0 -99.2,69.18667 -99.2,154.50671"
           style="fill:#351f17;fill-opacity:1;fill-rule:nonzero;stroke:none;stroke-width:0.133333" />
        <path
           id="path654"
           d="m 6004.8532,1018.2534 74.7066,52.4933 c 0,0 -19.1866,106 -114.1199,68.6533 l 4.0666,-109.0533 35.3467,-12.0933"
           style="fill:#6f4323;fill-opacity:1;fill-rule:nonzero;stroke:none;stroke-width:0.133333" />
        <path
           id="path655"
           d="m 5938.4532,1007.0401 c 0,45.5466 23.7333,82.5066 52.9733,82.5066 29.2533,0 52.96,-36.96 52.96,-82.5066 0,-45.56005 -23.7067,-82.48004 -52.96,-82.48004 -29.24,0 -52.9733,36.91999 -52.9733,82.48004"
           style="fill:#231f20;fill-opacity:1;fill-rule:nonzero;stroke:none;stroke-width:0.133333" />
        <path
           id="path656"
           d="m 5941.2265,936.32005 c 0,22.24 18.0267,40.24 40.24,40.24 22.2133,0 40.24,-18 40.24,-40.24 0,-22.19999 -18.0267,-40.23999 -40.24,-40.23999 -22.2133,0 -40.24,18.04 -40.24,40.23999"
           style="fill:#ffffff;fill-opacity:1;fill-rule:nonzero;stroke:none;stroke-width:0.133333" />
        <path
           id="path657"
           d="m 5930.3599,989.00005 c 0,-9.49333 7.6933,-17.2 17.2,-17.2 9.52,0 17.2133,7.70667 17.2133,17.2 0,9.52 -7.6933,17.22665 -17.2133,17.22665 -9.5067,0 -17.2,-7.70665 -17.2,-17.22665"
           style="fill:#ffffff;fill-opacity:1;fill-rule:nonzero;stroke:none;stroke-width:0.133333" />
        <path
           id="path658"
           d="m 5439.7199,1035.2267 c -5.8134,119.04 51.2266,215.0267 127,222.3067 75.76,7.2533 149.9866,-76.1467 166.9333,-194.1067 18.32,-127.70665 -36.52,-245.97331 -123.9333,-254.35998 -87.4267,-8.37333 -163.76,97.32 -170,226.15998"
           style="fill:#ffffff;fill-opacity:1;fill-rule:nonzero;stroke:none;stroke-width:0.133333" />
        <path
           id="path659"
           d="m 5464.6665,1000.9201 c -8.1466,84.9333 29.4534,158.0533 84,163.2533 54.52,5.2266 105.32,-59.36 113.48,-144.3067 8.1467,-84.93331 -29.4666,-158.03998 -84,-163.26664 -54.52,-5.22667 -105.3333,59.38666 -113.48,144.32004"
           style="fill:#351f17;fill-opacity:1;fill-rule:nonzero;stroke:none;stroke-width:0.133333" />
        <path
           id="path660"
           d="m 5563.0399,1021.6134 69.3733,59.3867 c 0,0 -29.24,103.6799 -120.1333,57.4533 l 14.4266,-108.16 36.3334,-8.68"
           style="fill:#6f4323;fill-opacity:1;fill-rule:nonzero;stroke:none;stroke-width:0.133333" />
        <path
           id="path661"
           d="m 5498.0399,1004.1201 c -4.3467,45.36 15.72,84.4 44.84,87.1866 29.1066,2.7867 56.2533,-31.7333 60.6,-77.0533 4.3466,-45.36001 -15.72,-84.40001 -44.8667,-87.20001 -29.0933,-2.78667 -56.24,31.72 -60.5733,77.06671"
           style="fill:#231f20;fill-opacity:1;fill-rule:nonzero;stroke:none;stroke-width:0.133333" />
        <path
           id="path662"
           d="m 5507.5199,934.01339 c -2.1067,22.10666 14.08,41.74666 36.2,43.89333 22.1333,2.10667 41.8133,-14.12 43.9066,-36.22667 2.12,-22.13333 -14.08,-41.78666 -36.2133,-43.87999 -22.1067,-2.13334 -41.7867,14.06666 -43.8933,36.21333"
           style="fill:#ffffff;fill-opacity:1;fill-rule:nonzero;stroke:none;stroke-width:0.133333" />
        <path
           id="path663"
           d="m 5491.6799,985.40005 c 0.9066,-9.48 9.3066,-16.4 18.7866,-15.49333 9.4534,0.89333 16.3734,9.30667 15.5067,18.78667 -0.92,9.46666 -9.3467,16.40001 -18.8133,15.49331 -9.4534,-0.8933 -16.4,-9.33331 -15.48,-18.78665"
           style="fill:#ffffff;fill-opacity:1;fill-rule:nonzero;stroke:none;stroke-width:0.133333" />
      </g>
    </g>
  </g>
</svg>
