<?xml version="1.0" encoding="UTF-8" standalone="no"?>
<!-- Generator: Adobe Illustrator 21.0.0, SVG Export Plug-In . SVG Version: 6.00 Build 0)  -->

<svg
   viewBox="0 0 449.20001 583.87268"
   enable-background="new 0 0 1400 980"
   xml:space="preserve"
   sodipodi:docname="maid's outfit.svg"
   inkscape:version="1.3.2 (091e20ef0f, 2023-11-25)"
   version="1.1"
   id="svg1"
   xmlns:inkscape="http://www.inkscape.org/namespaces/inkscape"
   xmlns:sodipodi="http://sodipodi.sourceforge.net/DTD/sodipodi-0.dtd"
   xmlns="http://www.w3.org/2000/svg"
   xmlns:svg="http://www.w3.org/2000/svg"><defs
     id="defs74">
	
	
	
	
	
	
	
</defs><sodipodi:namedview
     id="namedview74"
     pagecolor="#ffffff"
     bordercolor="#000000"
     borderopacity="0.25"
     inkscape:showpageshadow="2"
     inkscape:pageopacity="0.0"
     inkscape:pagecheckerboard="0"
     inkscape:deskcolor="#d1d1d1"
     inkscape:zoom="1.1795918"
     inkscape:cx="221.68685"
     inkscape:cy="170.39792"
     inkscape:window-width="3440"
     inkscape:window-height="1368"
     inkscape:window-x="0"
     inkscape:window-y="275"
     inkscape:window-maximized="1"
     inkscape:current-layer="g65" /><g
     id="g65"
     transform="translate(-478,-319.92734)"><g
       id="g45"><path
         fill="#231f20"
         d="m 810.7,622.1 c -6.2,-84.7 31.5,-106.9 61.4,-178.6 29.9,-71.8 14.5,-69.2 6.2,-69.2 -8.3,0 -48.5,-47.5 -84.7,-53.7 -36.1,-6.2 -90.9,32.5 -90.9,32.5 0,0 -54.7,-38.7 -90.9,-32.5 -36.1,6.2 -76.4,53.7 -84.7,53.7 -8.3,0 -23.8,-2.6 6.2,69.2 29.9,71.8 67.6,94 61.4,178.6 0,0 -69.4,17.6 -116.7,211.2 0,0 92.9,67.4 224.6,70.5 131.7,-3.1 224.6,-70.5 224.6,-70.5 C 880.2,639.6 810.7,622.1 810.7,622.1 Z"
         id="path39" /><path
         fill="#ffffff"
         d="m 703.1,837.2 c -99.5,-2.3 -176.9,-41.4 -208.7,-60.3 -1.2,3.6 -2.3,7.3 -3.5,11.1 29.4,18 108.9,60 212.2,62.4 103.4,-2.4 182.8,-44.5 212.2,-62.4 -1.2,-3.8 -2.3,-7.5 -3.5,-11.1 -31.8,18.9 -109.2,57.9 -208.7,60.3 z"
         id="path40"
         style="fill:#4030d3;fill-opacity:1" /><g
         id="g44"
         style="fill:#776cfb;fill-opacity:1">
				<path
   fill="#ffffff"
   d="m 625.8,609 c -19.1,-1.9 -30.9,-3.5 -30.9,-3.5 V 622 c 5.6,0.9 11,1.7 16.3,2.5 4.4,-5.6 9.3,-10.8 14.6,-15.5 z"
   id="path41"
   style="fill:#c1bbfd;fill-opacity:1;stroke:#3b44f0;stroke-opacity:0.60559738" />
				<path
   fill="#ffffff"
   d="m 795,625.3 c 10.3,-1.8 15.7,-3.3 15.7,-3.3 l -0.6,-12.7 c -8.6,1.3 -17.6,2.2 -26.7,3 4.2,4.1 8,8.4 11.6,13 z"
   id="path42"
   style="fill:#c1bbfd;fill-opacity:1;stroke:#3b44f0;stroke-opacity:0.60559738" />
				<path
   fill="#ffffff"
   d="m 795,625.3 c -28,4.9 -92.2,12.1 -183.7,-0.8 -15.9,20.2 -25.4,45.9 -25.4,73.7 0,65.5 52.4,118.6 116.9,118.6 64.5,0 116.9,-53.1 116.9,-118.6 0,-27.4 -9.2,-52.8 -24.7,-72.9 z"
   id="path43"
   style="fill:#c1bbfd;fill-opacity:1;stroke:#3b44f0;stroke-opacity:0.60559738" />
				<path
   fill="#ffffff"
   d="m 795,625.3 c -3.5,-4.6 -7.4,-8.9 -11.6,-12.9 -56.9,4.7 -120.7,0.2 -157.6,-3.4 -5.3,4.7 -10.2,9.9 -14.6,15.5 91.6,12.9 155.8,5.7 183.8,0.8 z"
   id="path44"
   style="fill:#c1bbfd;fill-opacity:1;stroke:none;stroke-opacity:0.60559738" />
			</g></g><g
       id="g46"
       style="fill:#776cfb;fill-opacity:1">
			<path
   fill="#ffffff"
   d="m 887.2,379.8 c -1.3,-2.1 -3.7,-2.4 -7.5,-2.7 -1.2,-0.1 -2.5,-0.2 -3.7,-0.4 -3.9,-0.7 -7.6,-4 -12.6,-8.5 -9.8,-8.8 -24.7,-22.2 -53.7,-27.6 -3.2,-0.6 -6.7,-0.9 -10.4,-0.9 -41.2,0 -94,38.7 -94.6,39.1 -0.5,0.4 -1.2,0.6 -1.8,0.6 -0.6,0 -1.3,-0.2 -1.8,-0.6 -0.5,-0.4 -53.3,-39.1 -94.6,-39.1 -3.7,0 -7.2,0.3 -10.4,0.9 -29,5.5 -43.9,18.8 -53.7,27.6 -5,4.5 -8.7,7.8 -12.6,8.5 -1.2,0.2 -2.5,0.3 -3.7,0.4 -3.8,0.2 -6.3,0.5 -7.5,2.7 -2.8,4.7 -1.8,19.3 17.4,61.9 1.9,-7.4 5.6,-18.1 12.6,-28.9 C 560,395.1 583,374 627.2,374 c 22,0 47.4,5.2 75.6,15.5 28.2,-10.3 53.6,-15.5 75.6,-15.5 44.2,0 67.2,21 78.7,38.7 7.1,10.8 10.7,21.5 12.6,28.9 19.2,-42.5 20.2,-57.1 17.5,-61.8 z"
   id="path45"
   style="fill:#c1bbfd;fill-opacity:1;stroke:#3b44f0;stroke-opacity:0.60559738" />
			<path
   fill="#231f20"
   d="m 876.5,373.7 c -9.6,-1.8 -22.4,-27.9 -66.3,-36.1 -3.5,-0.7 -7.2,-1 -11,-1 -42.8,0 -96.4,39.7 -96.4,39.7 0,0 -53.7,-39.7 -96.4,-39.7 -3.8,0 -7.4,0.3 -11,1 -43.9,8.3 -56.7,34.4 -66.3,36.1 -9.6,1.8 -31.8,-7.1 7.9,78 0,0 7.3,-74.6 90.1,-74.6 20.3,0 45.2,4.5 75.6,15.7 30.4,-11.2 55.3,-15.7 75.6,-15.7 82.8,0 90.1,74.6 90.1,74.6 39.9,-85.1 17.7,-76.2 8.1,-78 z m -98.1,0.3 c -22,0 -47.4,5.2 -75.6,15.5 -28.2,-10.3 -53.6,-15.5 -75.6,-15.5 -44.2,0 -67.2,21 -78.7,38.7 -7.1,10.8 -10.7,21.5 -12.6,28.9 -19.2,-42.6 -20.2,-57.2 -17.4,-61.9 1.3,-2.1 3.7,-2.4 7.5,-2.7 1.2,-0.1 2.5,-0.2 3.7,-0.4 3.9,-0.7 7.6,-4 12.6,-8.5 9.8,-8.8 24.7,-22.2 53.7,-27.6 3.2,-0.6 6.7,-0.9 10.4,-0.9 41.2,0 94,38.7 94.6,39.1 0.5,0.4 1.2,0.6 1.8,0.6 0.6,0 1.3,-0.2 1.8,-0.6 0.5,-0.4 53.3,-39.1 94.6,-39.1 3.7,0 7.2,0.3 10.4,0.9 29,5.5 43.9,18.8 53.7,27.6 5,4.5 8.7,7.8 12.6,8.5 1.2,0.2 2.5,0.3 3.7,0.4 3.8,0.2 6.3,0.5 7.5,2.7 2.8,4.7 1.8,19.3 -17.4,61.9 -1.9,-7.4 -5.6,-18.1 -12.6,-28.9 C 845.6,395.1 822.6,374 778.4,374 Z"
   id="path46"
   style="fill:#776cfb;fill-opacity:1" />
		</g><g
       id="g64"
       style="fill:#036e1b;fill-opacity:1"><g
         id="g52"
         style="fill:#036e1b;fill-opacity:1">
				<path
   fill="#ffffff"
   d="M 731.7,598.8 H 682 c -1.3,0 -2.4,-0.9 -2.6,-2.2 -0.2,-1.3 0.5,-2.5 1.8,-2.9 6.7,-2.2 14.2,-7 21.3,-12.3 -9.4,-6.4 -18.5,-13.6 -22.6,-19.7 -0.4,-0.6 -0.6,-1.4 -0.4,-2.2 0.2,-0.7 0.7,-1.4 1.4,-1.7 0.2,-0.1 8.3,-3.8 18.4,-9.6 -15.2,-10.9 -19.5,-24.3 -19.8,-25.2 -0.2,-0.7 -0.1,-1.4 0.2,-2 0.3,-0.6 0.9,-1.1 1.6,-1.3 9.3,-2.5 17.4,-6.8 24.1,-11.6 -10.2,-6.5 -20.5,-14.1 -25.5,-20.9 -0.5,-0.6 -0.6,-1.5 -0.4,-2.3 0.2,-0.8 0.8,-1.4 1.5,-1.7 0.1,-0.1 7.8,-3.2 19.4,-11.1 -16.2,-11.3 -20.6,-22.1 -20.8,-22.8 -0.3,-0.8 -0.2,-1.7 0.3,-2.4 0.5,-0.7 1.3,-1.1 2.2,-1.1 h 50.3 c 1.1,0 2,0.6 2.4,1.6 0.4,1 0.2,2.1 -0.5,2.8 -8.8,9 -17.1,16.1 -24.4,21.6 6.1,3.5 13.6,7 22.7,10.1 0.8,0.3 1.3,0.8 1.6,1.6 0.3,0.7 0.2,1.6 -0.2,2.3 -0.4,0.7 -7,11.5 -19.3,21.9 11.7,7 21.9,12.2 22.1,12.3 0.7,0.3 1.2,0.9 1.4,1.7 0.2,0.7 0.1,1.5 -0.4,2.1 -6,9.1 -17.5,17.7 -28.4,24.6 6.1,3.2 13.6,5.9 22.7,7.3 0.9,0.2 1.7,0.8 2.1,1.7 0.3,0.9 0.1,1.9 -0.5,2.6 -0.7,0.7 -10.1,11 -22.2,21 11.2,7.2 21.4,12.7 21.6,12.8 1.1,0.6 1.6,1.8 1.3,2.9 -0.5,1.3 -1.5,2.1 -2.7,2.1 z m -37.9,-5.2 h 28 c -4.1,-2.4 -9.3,-5.6 -14.7,-9.1 -4.3,3.3 -8.8,6.5 -13.3,9.1 z m -7.7,-32.4 c 4.6,5.3 12.6,11.3 20.7,16.8 8.4,-6.8 15.7,-14 19.7,-18.1 -8.9,-1.9 -16.2,-5 -22.2,-8.5 -7.6,4.6 -14.5,8 -18.2,9.8 z m -0.6,-37.1 c 2,4.4 7.3,13.7 18.8,21.3 10.1,-6.2 21,-14 27.4,-22.1 -4.2,-2.2 -12.5,-6.6 -21.4,-12.1 -6.9,5.1 -15.1,9.9 -24.8,12.9 z m 0.7,-37.4 c 5.4,5.9 14.6,12.4 23.7,18.1 8.9,-7.3 14.9,-15 17.8,-19 -9,-3.2 -16.4,-6.9 -22.5,-10.5 -8.5,6 -15.2,9.6 -19,11.4 z m 0.2,-35.6 c 2.6,4 8.1,10.8 18.6,17.8 6.3,-4.6 13.4,-10.5 21,-17.8 z"
   id="path52"
   style="fill:#036e1b;fill-opacity:1" />
			</g><g
         id="g63"
         style="fill:#036e1b;fill-opacity:1">
				<g
   id="g53"
   style="fill:#036e1b;fill-opacity:1">
					<circle
   fill="#ffffff"
   cx="678.70001"
   cy="448.5"
   r="7.4000001"
   id="circle52"
   style="fill:#036e1b;fill-opacity:1" />
				</g>
				<g
   id="g54"
   style="fill:#036e1b;fill-opacity:1">
					<circle
   fill="#ffffff"
   cx="734.09998"
   cy="448.5"
   r="7.4000001"
   id="circle53"
   style="fill:#036e1b;fill-opacity:1" />
				</g>
				<g
   id="g55"
   style="fill:#036e1b;fill-opacity:1">
					<circle
   fill="#ffffff"
   cx="678.70001"
   cy="484.60001"
   r="7.4000001"
   id="circle54"
   style="fill:#036e1b;fill-opacity:1" />
				</g>
				<g
   id="g56"
   style="fill:#036e1b;fill-opacity:1">
					<circle
   fill="#ffffff"
   cx="734.09998"
   cy="484.60001"
   r="7.4000001"
   id="circle55"
   style="fill:#036e1b;fill-opacity:1" />
				</g>
				<g
   id="g57"
   style="fill:#036e1b;fill-opacity:1">
					<circle
   fill="#ffffff"
   cx="678.70001"
   cy="523.20001"
   r="7.4000001"
   id="circle56"
   style="fill:#036e1b;fill-opacity:1" />
				</g>
				<g
   id="g58"
   style="fill:#036e1b;fill-opacity:1">
					<circle
   fill="#ffffff"
   cx="734.09998"
   cy="523.20001"
   r="7.4000001"
   id="circle57"
   style="fill:#036e1b;fill-opacity:1" />
				</g>
				<g
   id="g59"
   style="fill:#036e1b;fill-opacity:1">
					<circle
   fill="#ffffff"
   cx="678.70001"
   cy="559.59998"
   r="7.4000001"
   id="circle58"
   style="fill:#036e1b;fill-opacity:1" />
				</g>
				<g
   id="g60"
   style="fill:#036e1b;fill-opacity:1">
					<circle
   fill="#ffffff"
   cx="734.09998"
   cy="559.59998"
   r="7.4000001"
   id="circle59"
   style="fill:#036e1b;fill-opacity:1" />
				</g>
				<g
   id="g61"
   style="fill:#036e1b;fill-opacity:1">
					<circle
   fill="#ffffff"
   cx="678.70001"
   cy="596.20001"
   r="7.4000001"
   id="circle60"
   style="fill:#036e1b;fill-opacity:1" />
				</g>
				<g
   id="g62"
   style="fill:#036e1b;fill-opacity:1">
					<circle
   fill="#ffffff"
   cx="734.09998"
   cy="596.20001"
   r="7.4000001"
   id="circle61"
   style="fill:#036e1b;fill-opacity:1" />
				</g>
			</g></g><g
       id="g51"
       style="fill:#fa2222;fill-opacity:1"><g
         id="g47"
         style="fill:#fa2222;fill-opacity:1">
				<path
   fill="#ffffff"
   d="m 692.2,399.6 c 0,0 -43.6,-29 -82.3,-13.3 -38.8,15.7 -19.9,62.6 -4.4,89.2 15.5,26.6 59.7,-19.8 70.3,-26.5 10.7,-6.7 27.6,-31.2 27.6,-31.2 z m -33.1,31.2 c -7.5,5.1 -24.5,15.1 -34.3,-1.7 -9.8,-16.8 -12.3,-29 14.7,-31.1 27,-2 44.8,14.3 44.8,14.3 0,0 -17.7,13.5 -25.2,18.5 z"
   id="path47"
   style="fill:#fa2222;fill-opacity:1" />
			</g><g
         id="g48"
         style="fill:#fa2222;fill-opacity:1">
				<path
   fill="#ffffff"
   d="m 706.6,416.3 c 0,0 13,20.2 21.9,26.2 8.9,6 44.1,45.2 59.9,26 15.8,-19.1 36.3,-53.6 3.4,-68.7 -32.9,-15.2 -73.7,3.6 -73.7,3.6 z m 17.3,-2.5 c 0,0 17,-11.1 40.7,-7.4 23.6,3.7 20.4,12.9 10.5,25 -10,12.1 -24.2,3 -30.4,-1.5 -6.2,-4.4 -20.8,-16.1 -20.8,-16.1 z"
   id="path48"
   style="fill:#fa2222;fill-opacity:1" />
			</g><path
         fill="#ffffff"
         d="m 721.8,404.7 c -0.4,8.6 -8.1,22.6 -16.7,22.2 -8.6,-0.4 -14.9,-15.1 -14.5,-23.7 0.4,-8.6 7.4,-7.9 16,-7.5 8.6,0.4 15.6,0.4 15.2,9 z"
         id="path49"
         style="fill:#fa2222;fill-opacity:1" /><path
         fill="#ffffff"
         d="m 698.9,415.4 c 0,0 -19.9,38.3 -18.4,73.6 1.6,35.3 5.2,39.6 5.2,39.6 0,0 -15.2,-20.4 -36.2,-10.8 0,0 16,-76.5 46.6,-107.2 z"
         id="path50"
         style="fill:#fa2222;fill-opacity:1" /><path
         fill="#ffffff"
         d="m 711.1,410.4 c 0,0 49.7,40.4 71.7,93.7 0,0 -30.4,-10 -46.3,13 0,0 -1.4,-72.8 -29,-105.3 z"
         id="path51"
         style="fill:#fa2222;fill-opacity:1" /></g></g></svg>
